<svg xmlns="http://www.w3.org/2000/svg" width="40" height="40" viewBox="0 0 40 40"><defs><style>.a{fill:#fbfbfd;}</style></defs><path class="a" d="M39.365,18.082,20.865.348a1.25,1.25,0,0,0-1.73,0L.617,18.1A2.113,2.113,0,0,0,0,19.583a2.086,2.086,0,0,0,2.083,2.083H5V37.5A2.5,2.5,0,0,0,7.5,40h7.083a1.25,1.25,0,0,0,1.25-1.25V27.917a.418.418,0,0,1,.417-.417h7.5a.419.419,0,0,1,.417.417V38.75A1.25,1.25,0,0,0,25.417,40H32.5A2.5,2.5,0,0,0,35,37.5V21.667h2.917A2.086,2.086,0,0,0,40,19.583,2.128,2.128,0,0,0,39.365,18.082Z" transform="translate(0 -0.001)"/></svg>