<svg xmlns="http://www.w3.org/2000/svg" width="40" height="30.628" viewBox="0 0 40 30.628"><defs><style>.a{fill:#fff;}</style></defs><path class="a" d="M32.5,94H25.938A.94.94,0,0,1,25,93.063V89.938A.94.94,0,0,1,25.938,89H32.5A2.5,2.5,0,0,0,35,86.5v-15A2.5,2.5,0,0,0,32.5,69H25.938A.94.94,0,0,1,25,68.063V64.938A.94.94,0,0,1,25.938,64H32.5A7.5,7.5,0,0,1,40,71.5v15A7.5,7.5,0,0,1,32.5,94ZM28.828,78.3,15.7,65.172A1.878,1.878,0,0,0,12.5,66.5V74H1.875A1.871,1.871,0,0,0,0,75.875v7.5A1.871,1.871,0,0,0,1.875,85.25H12.5v7.5a1.878,1.878,0,0,0,3.2,1.328L28.828,80.953A1.891,1.891,0,0,0,28.828,78.3Z" transform="translate(0 -64)"/></svg>