<svg xmlns="http://www.w3.org/2000/svg" width="23.268" height="22.848" viewBox="0 0 23.268 22.848"><defs><style>.a{fill:#eb3d5b;}</style></defs><path class="a" d="M16.485,22.543a6.3,6.3,0,0,0-3.082.8,6.9,6.9,0,0,0-1.769,1.411,6.9,6.9,0,0,0-1.769-1.411,6.3,6.3,0,0,0-3.082-.8A7.088,7.088,0,0,0,0,29.886C0,32.754,1.4,35.8,4.158,38.94a40.949,40.949,0,0,0,7.085,6.178l.391.273.391-.273a40.948,40.948,0,0,0,7.085-6.178c2.759-3.14,4.158-6.186,4.158-9.054A7.088,7.088,0,0,0,16.485,22.543Z" transform="translate(0 -22.543)"/></svg>