<svg xmlns="http://www.w3.org/2000/svg" width="20.529" height="20.099" viewBox="0 0 20.529 20.099"><defs><style>.a{fill:#454f63;}</style></defs><g transform="translate(-0.286 -3.092)"><g transform="translate(0.286 3.092)"><path class="a" d="M19.52,17.669l-6.561-6.417a7.4,7.4,0,0,0,1.694-4.715A7.623,7.623,0,0,0,6.948-1,7.623,7.623,0,0,0-.758,6.537a7.623,7.623,0,0,0,7.706,7.537,7.78,7.78,0,0,0,4.8-1.64l6.563,6.419a.87.87,0,0,0,1.211,0A.824.824,0,0,0,19.52,17.669ZM.954,6.537A5.929,5.929,0,0,1,6.948.675a5.929,5.929,0,0,1,5.993,5.862,5.781,5.781,0,0,1-1.765,4.154h0A6.042,6.042,0,0,1,6.948,12.4,5.929,5.929,0,0,1,.954,6.537Z" transform="translate(0.758 1)"/></g></g></svg>