<svg xmlns="http://www.w3.org/2000/svg" width="30.72" height="23.653" viewBox="0 0 30.72 23.653"><g transform="translate(-7.263)"><path d="M29.44,125.833H1.28a1.618,1.618,0,0,1,0-3.165H29.44a1.618,1.618,0,0,1,0,3.165Zm0,0" transform="translate(7.263 -112.424)"/><path d="M29.44,3.165H1.28A1.456,1.456,0,0,1,0,1.583,1.456,1.456,0,0,1,1.28,0H29.44a1.456,1.456,0,0,1,1.28,1.583A1.456,1.456,0,0,1,29.44,3.165Zm0,0" transform="translate(7.263)"/><path d="M29.44,248.5H1.28a1.618,1.618,0,0,1,0-3.165H29.44a1.618,1.618,0,0,1,0,3.165Zm0,0" transform="translate(7.263 -224.844)"/></g></svg>