<svg width="34" height="34" viewBox="0 0 34 34" fill="none" xmlns="http://www.w3.org/2000/svg">
<path d="M33.711 12.801C33.6535 12.6284 33.5495 12.475 33.4105 12.3577C33.2715 12.2404 33.1028 12.1637 32.923 12.136L22.443 10.543L17.776 0.522004C17.6863 0.363515 17.5561 0.231673 17.3988 0.139942C17.2415 0.0482112 17.0626 -0.00012207 16.8805 -0.00012207C16.6984 -0.00012207 16.5195 0.0482112 16.3622 0.139942C16.2049 0.231673 16.0747 0.363515 15.985 0.522004L11.319 10.544L0.838997 12.132C0.659372 12.16 0.490904 12.2368 0.35203 12.3542C0.213155 12.4715 0.109226 12.6247 0.0516144 12.7971C-0.00599716 12.9696 -0.0150708 13.1545 0.0253865 13.3317C0.0658438 13.509 0.154273 13.6717 0.280997 13.802L7.911 21.566L6.123 32.612C6.09278 32.7954 6.11483 32.9835 6.18661 33.1549C6.2584 33.3263 6.37702 33.474 6.52889 33.5811C6.68075 33.6882 6.85971 33.7503 7.04526 33.7604C7.23081 33.7704 7.41544 33.728 7.578 33.638L16.878 28.489L26.178 33.638C26.3406 33.728 26.5252 33.7704 26.7107 33.7604C26.8963 33.7503 27.0752 33.6882 27.2271 33.5811C27.379 33.474 27.4976 33.3263 27.5694 33.1549C27.6412 32.9835 27.6632 32.7954 27.633 32.612L25.851 21.571L33.481 13.807C33.608 13.6766 33.6967 13.5138 33.7373 13.3363C33.7778 13.1588 33.7688 12.9736 33.711 12.801Z" fill="white"/>
</svg>
