<svg width="231" height="315" viewBox="0 0 231 315" fill="none" xmlns="http://www.w3.org/2000/svg">
<path d="M186.184 59.9404C188.145 62.0417 191.43 62.1555 193.531 60.1942L215.634 39.5675C217.736 37.6062 217.849 34.3215 215.888 32.2202C213.927 30.1189 210.642 30.0051 208.541 31.9664L186.438 52.5931C184.337 54.5544 184.223 57.8391 186.184 59.9404Z" fill="#3DA136"/>
<path d="M188.079 60.7003C185.226 60.853 182.767 58.6649 182.611 55.784L181.482 34.5314C181.329 31.6788 183.518 29.2198 186.398 29.0639C189.251 28.9112 191.71 31.0993 191.866 33.9802L192.995 55.2328C193.151 58.1137 190.96 60.5444 188.079 60.7003Z" fill="#3DA136"/>
<path d="M190.746 52.619L210.54 60.6104C215.896 62.7843 217.554 70.0287 213.887 75.3826L157.908 157.152C152.024 165.714 140.171 160.923 141.875 150.684L158.268 52.9601C159.35 46.5804 165.57 42.4854 170.926 44.6592L190.746 52.619Z" fill="#F07E19"/>
<path d="M226.219 119H44.7984C42.1467 119 40 120.899 40 123.259V139.604C40 141.946 42.1467 143.863 44.7984 143.863H52.5012C52.5012 144.324 52.5373 144.786 52.6636 145.265L73 219.5C73.6314 221.789 79.6503 225 79.6503 225H192.017C194.488 225 196.653 223.403 197.303 221.114L218.336 145.265C218.463 144.786 218.517 144.324 218.499 143.863H226.201C228.853 143.863 231 141.964 231 139.604V123.259C231.018 120.917 228.871 119 226.219 119Z" fill="#FFCF39"/>
<path d="M169 157V205" stroke="#FAF3AB" stroke-width="2.1413" stroke-miterlimit="10"/>
<path d="M155 165V217" stroke="#FAF3AB" stroke-width="2.1413" stroke-miterlimit="10"/>
<path d="M193 193H143" stroke="#FAF3AB" stroke-width="2.1413" stroke-miterlimit="10"/>
<path d="M185 179H131" stroke="#FAF3AB" stroke-width="2.1413" stroke-miterlimit="10"/>
<path d="M79.5 0C35.6416 0 0 35.4639 0 79.1016C0 93.8672 4.10838 108.238 11.9254 120.63L74.1108 221.887C75.1717 223.6 76.7617 224.656 78.6171 224.919C81.1337 225.314 83.9175 224.26 85.3746 221.755L147.738 119.575C155.157 107.447 159 93.3403 159 79.1016C159 35.4639 123.358 0 79.5 0ZM79.5 118.652C57.2409 118.652 39.75 100.723 39.75 79.1016C39.75 57.3482 57.6371 39.5508 79.5 39.5508C101.363 39.5508 119.25 57.3482 119.25 79.1016C119.25 100.591 102.025 118.652 79.5 118.652Z" fill="#FD003A"/>
<path d="M80 0V39.5512C101.725 39.5512 119.5 57.3487 119.5 79.1023C119.5 100.592 102.383 118.653 80 118.653V224.998C82.2467 225.05 84.557 223.972 85.8372 221.757L147.808 119.576C155.181 107.448 159 93.3412 159 79.1023C159 35.4642 123.583 0 80 0Z" fill="#E50027"/>
<path d="M4.75 304V304.25H5H10.55H10.8V304V251.725V251.475H10.55H5H4.75V251.725V304ZM101.16 299.6L101.321 299.436L101.17 299.261L97.7953 295.361L97.6172 295.156L97.4272 295.351C94.6287 298.223 90.8704 299.7 86.6562 299.7C78.4002 299.7 72.3562 293.443 72.3562 285.1C72.3562 276.757 78.4002 270.5 86.6562 270.5C90.8704 270.5 94.6287 271.977 97.4272 274.849L97.6172 275.044L97.7953 274.839L101.17 270.939L101.321 270.764L101.16 270.6C97.4329 266.797 92.4161 264.825 86.6562 264.825C75.4231 264.825 66.3063 273.407 66.3063 285.1C66.3063 296.793 75.4231 305.375 86.6562 305.375C92.4161 305.375 97.4329 303.403 101.16 299.6ZM139.432 270.961C137.337 267.888 133.216 264.825 126.257 264.825C115.537 264.825 106.882 273.419 106.882 285.1C106.882 296.781 115.537 305.375 126.257 305.375C133.216 305.375 137.337 302.312 139.432 299.239V304V304.25H139.682H145.232H145.482V304V266.2V265.95H145.232H139.682H139.432V266.2V270.961ZM155.336 304V304.25H155.586H161.136H161.386V304V251.725V251.475H161.136H155.586H155.336V251.725V304ZM171.376 304V304.25H171.626H177.176H177.426V304V266.2V265.95H177.176H171.626H171.376V266.2V304ZM19.065 285.1C19.065 296.793 28.1819 305.375 39.415 305.375C50.6482 305.375 59.765 296.793 59.765 285.1C59.765 273.407 50.6482 264.825 39.415 264.825C28.1819 264.825 19.065 273.407 19.065 285.1ZM25.115 285.1C25.115 276.757 31.159 270.5 39.415 270.5C47.6711 270.5 53.715 276.757 53.715 285.1C53.715 293.443 47.6711 299.7 39.415 299.7C31.159 299.7 25.115 293.443 25.115 285.1ZM112.932 285.1C112.932 276.741 118.617 270.5 126.257 270.5C134.207 270.5 140.107 276.75 140.107 285.1C140.107 293.45 134.207 299.7 126.257 299.7C118.617 299.7 112.932 293.459 112.932 285.1ZM174.401 260.15C176.479 260.15 178.401 258.473 178.401 256.15C178.401 253.827 176.479 252.15 174.401 252.15C172.323 252.15 170.401 253.827 170.401 256.15C170.401 258.473 172.323 260.15 174.401 260.15ZM185.691 285.1C185.691 296.793 194.808 305.375 206.041 305.375C217.274 305.375 226.391 296.793 226.391 285.1C226.391 273.407 217.274 264.825 206.041 264.825C194.808 264.825 185.691 273.407 185.691 285.1ZM191.741 285.1C191.741 276.757 197.785 270.5 206.041 270.5C214.297 270.5 220.341 276.757 220.341 285.1C220.341 293.443 214.297 299.7 206.041 299.7C197.785 299.7 191.741 293.443 191.741 285.1Z" fill="#FFFBFE" stroke="#FFFBFE" stroke-width="0.5"/>
</svg>
