<svg width="433" height="102" viewBox="0 0 433 102" fill="none" xmlns="http://www.w3.org/2000/svg">
<path d="M133.294 86.2678V86.6052H141.446V15.5242H133.294V86.2678ZM263.228 80.3447L263.444 80.125L263.24 79.8897L258.698 74.6335L258.459 74.3588L258.204 74.6216C256.309 76.534 254.044 78.0398 251.547 79.0468C249.05 80.0538 246.373 80.5409 243.681 80.4781C238.531 80.3752 233.626 78.2584 230.02 74.5819C226.414 70.9054 224.394 65.9624 224.394 60.8142C224.394 55.666 226.414 50.723 230.02 47.0465C233.626 43.37 238.531 41.2531 243.681 41.1503C246.373 41.0875 249.05 41.5745 251.547 42.5815C254.044 43.5885 256.309 45.0944 258.204 47.0068L258.459 47.2695L258.698 46.9949L263.247 41.7426L263.452 41.5073L263.236 41.2876C260.677 38.7318 257.625 36.724 254.264 35.3866C250.903 34.0493 247.305 33.4104 243.689 33.5091C240.101 33.5091 236.547 34.2155 233.232 35.5879C229.916 36.9603 226.904 38.9719 224.367 41.5078C221.829 44.0436 219.816 47.0542 218.443 50.3674C217.07 53.6807 216.363 57.2319 216.363 60.8181C216.363 64.4044 217.07 67.9556 218.443 71.2688C219.816 74.5821 221.829 77.5926 224.367 80.1285C226.904 82.6644 229.916 84.6759 233.232 86.0483C236.547 87.4207 240.101 88.1271 243.689 88.1271C247.304 88.2243 250.901 87.5843 254.26 86.2463C257.62 84.9083 260.671 82.9002 263.228 80.3447ZM314.826 41.77C312.799 39.0133 310.11 36.8111 307.006 35.3666C303.903 33.9222 300.486 33.2821 297.069 33.5052C290.034 33.8206 283.392 36.8355 278.525 41.9224C273.658 47.0093 270.942 53.7762 270.942 60.8142C270.942 67.8522 273.658 74.619 278.525 79.7059C283.392 84.7928 290.034 87.8078 297.069 88.1232C300.486 88.3463 303.903 87.7062 307.006 86.2617C310.11 84.8173 312.799 82.6151 314.826 79.8583V86.6208H322.979V35.0194H314.826V41.77ZM336.261 86.2678V86.6052H344.413V15.5242H336.241V86.2678H336.261ZM357.88 86.2678V86.6052H366.032V35.0194H357.86V86.2678H357.88ZM152.601 60.8102C152.551 64.4188 153.228 68.0005 154.59 71.3428C155.952 74.6851 157.972 77.7199 160.531 80.267C163.089 82.8141 166.133 84.8218 169.483 86.1706C172.832 87.5195 176.418 88.1821 180.029 88.1192C187.276 88.1192 194.227 85.242 199.351 80.1206C204.476 74.9992 207.355 68.053 207.355 60.8102C207.355 53.5674 204.476 46.6214 199.351 41.5C194.227 36.3786 187.276 33.5014 180.029 33.5014C176.417 33.4364 172.828 34.0975 169.477 35.4457C166.125 36.7938 163.079 38.8014 160.519 41.3491C157.959 43.8969 155.938 46.9329 154.575 50.2767C153.212 53.6205 152.535 57.2039 152.585 60.8142L152.601 60.8102ZM160.753 60.8102C160.655 58.2357 161.083 55.6682 162.011 53.2646C162.939 50.861 164.348 48.6719 166.152 46.8313C167.956 44.9906 170.117 43.5371 172.502 42.5596C174.888 41.5822 177.447 41.1013 180.025 41.1464C185.175 41.2492 190.08 43.3662 193.686 47.0427C197.292 50.7192 199.312 55.662 199.312 60.8102C199.312 65.9584 197.292 70.9014 193.686 74.5779C190.08 78.2544 185.175 80.3713 180.025 80.4741C177.447 80.5208 174.886 80.0413 172.5 79.0648C170.113 78.0883 167.951 76.6353 166.146 74.7949C164.341 72.9546 162.931 70.7654 162.001 68.3615C161.072 65.9576 160.643 63.3894 160.741 60.8142L160.753 60.8102ZM279.105 60.8102C279.105 49.5524 286.766 41.1464 297.062 41.1464C302.1 41.4126 306.845 43.6004 310.317 47.2589C313.789 50.9174 315.725 55.7677 315.725 60.8102C315.725 65.8527 313.789 70.7031 310.317 74.3616C306.845 78.0201 302.1 80.2079 297.062 80.4741C286.755 80.478 279.109 72.072 279.109 60.8142L279.105 60.8102ZM361.927 27.2095C362.992 27.2095 364.034 26.8937 364.92 26.3021C365.806 25.7105 366.497 24.8696 366.905 23.8857C367.313 22.9019 367.42 21.8192 367.212 20.7745C367.005 19.7299 366.492 18.7703 365.739 18.0169C364.985 17.2635 364.026 16.7503 362.98 16.542C361.935 16.3338 360.852 16.4399 359.867 16.8469C358.882 17.254 358.04 17.9437 357.448 18.8288C356.855 19.714 356.538 20.7549 356.538 21.8199C356.541 23.2477 357.109 24.6161 358.119 25.6261C359.129 26.6361 360.498 27.2053 361.927 27.2095ZM377.144 60.8142C377.124 66.24 378.715 71.5498 381.717 76.071C384.719 80.5922 388.996 84.1214 394.006 86.2116C399.016 88.3018 404.534 88.859 409.862 87.8125C415.189 86.7661 420.086 84.1631 423.932 80.3333C427.778 76.5035 430.4 71.6193 431.466 66.2991C432.532 60.9788 431.994 55.462 429.921 50.4474C427.847 45.4328 424.331 41.1461 419.818 38.1301C415.305 35.1141 409.997 33.5045 404.568 33.5052C400.959 33.4439 397.373 34.1078 394.025 35.4574C390.677 36.807 387.634 38.8148 385.077 41.3617C382.52 43.9087 380.501 46.9428 379.14 50.2844C377.779 53.6259 377.102 57.2066 377.152 60.8142H377.144ZM385.296 60.8142C385.375 57.022 386.572 53.3375 388.738 50.2226C390.904 47.1077 393.941 44.701 397.47 43.3042C400.998 41.9075 404.861 41.5829 408.573 42.3711C412.286 43.1593 415.683 45.0251 418.339 47.7348C420.994 50.4445 422.791 53.8775 423.502 57.6033C424.214 61.329 423.809 65.1817 422.338 68.6784C420.867 72.175 418.397 75.16 415.236 77.2591C412.074 79.3582 408.363 80.478 404.568 80.4781C401.991 80.5221 399.432 80.0403 397.048 79.0624C394.664 78.0844 392.504 76.6308 390.701 74.7903C388.898 72.9498 387.489 70.7611 386.561 68.358C385.633 65.955 385.206 63.3881 385.304 60.8142H385.296Z" fill="#403644" stroke="#403644" stroke-width="0.5"/>
<path d="M84.206 27.095C84.4165 27.321 84.6694 27.5033 84.9505 27.6314C85.2315 27.7595 85.5351 27.831 85.8438 27.8418C86.1525 27.8525 86.4603 27.8023 86.7495 27.694C87.0388 27.5857 87.3038 27.4214 87.5295 27.2105L97.5262 17.8861C97.761 17.678 97.9517 17.425 98.0871 17.142C98.2225 16.8591 98.2999 16.5519 98.3147 16.2386C98.3295 15.9253 98.2814 15.6122 98.1733 15.3178C98.0652 15.0233 97.8992 14.7535 97.6852 14.5241C97.4711 14.2948 97.2133 14.1105 96.9269 13.9823C96.6405 13.854 96.3314 13.7843 96.0177 13.7773C95.704 13.7703 95.392 13.8261 95.1001 13.9415C94.8083 14.0568 94.5425 14.2293 94.3184 14.4489L84.3217 23.7733C84.0956 23.9837 83.9132 24.2365 83.785 24.5174C83.6567 24.7982 83.5852 25.1016 83.5744 25.4102C83.5637 25.7187 83.614 26.0263 83.7223 26.3154C83.8307 26.6045 83.9951 26.8695 84.206 27.095Z" fill="#3DA136"/>
<path d="M85.0651 27.4417C84.7566 27.4581 84.4479 27.4137 84.1567 27.311C83.8654 27.2082 83.5972 27.0491 83.3674 26.8428C83.1376 26.6364 82.9508 26.3869 82.8175 26.1084C82.6842 25.8299 82.6072 25.5278 82.5907 25.2195L82.0786 15.6111C82.0605 15.3018 82.1038 14.992 82.2059 14.6994C82.308 14.4068 82.467 14.1373 82.6737 13.9064C82.8804 13.6754 83.1308 13.4876 83.4104 13.3537C83.69 13.2198 83.9933 13.1425 84.3029 13.1262C84.6125 13.1099 84.9223 13.1549 85.2144 13.2586C85.5065 13.3624 85.7752 13.5228 86.0051 13.7308C86.235 13.9387 86.4215 14.19 86.5538 14.4702C86.6862 14.7504 86.7618 15.054 86.7764 15.3635L87.2884 24.9719C87.3058 25.2802 87.262 25.5889 87.1594 25.8802C87.0569 26.1715 86.8977 26.4397 86.6911 26.6693C86.4844 26.8988 86.2344 27.0853 85.9553 27.2178C85.6762 27.3504 85.3737 27.4265 85.0651 27.4417Z" fill="#3DA136"/>
<path d="M86.2742 23.7832L95.227 27.3954C95.8113 27.69 96.3233 28.1101 96.7263 28.6256C97.1292 29.1411 97.4131 29.7393 97.5577 30.3772C97.7022 31.0152 97.7039 31.6773 97.5626 32.316C97.4212 32.9547 97.1404 33.5542 96.7401 34.0718L71.4211 71.0359C70.9622 71.8909 70.2038 72.5465 69.2912 72.8771C68.3787 73.2078 67.3761 73.1902 66.4757 72.8278C65.5753 72.4654 64.8403 71.7836 64.4117 70.9131C63.9831 70.0426 63.8911 69.0446 64.1531 68.1105L71.5664 23.9351C71.6379 23.2852 71.8523 22.659 72.1942 22.1016C72.5362 21.5442 72.9972 21.0692 73.5443 20.7107C74.0915 20.3523 74.7112 20.1192 75.359 20.0282C76.0068 19.9371 76.6668 19.9904 77.2916 20.1842L86.2742 23.7832Z" fill="#F07E19"/>
<path d="M102.313 53.7937H20.2612C19.7181 53.7621 19.1847 53.947 18.7779 54.3078C18.371 54.6687 18.1239 55.176 18.0907 55.7187V63.1082C18.1256 63.6502 18.3732 64.1565 18.7797 64.517C19.1861 64.8775 19.7186 65.063 20.2612 65.0332H23.7465C23.7429 65.2468 23.7673 65.4599 23.8192 65.6671L33.0165 99.2238C33.3006 100.257 36.0228 101.71 36.0228 101.71H86.8458C87.3811 101.716 87.904 101.548 88.3354 101.231C88.7669 100.914 89.0835 100.466 89.2376 99.9535L98.752 65.6671C98.808 65.4607 98.8325 65.2469 98.8247 65.0332H102.307C102.85 65.0639 103.382 64.8787 103.789 64.518C104.196 64.1574 104.443 63.6505 104.477 63.1082V55.7187C104.462 55.4503 104.393 55.1876 104.276 54.9456C104.159 54.7036 103.995 54.487 103.794 54.3082C103.593 54.1295 103.359 53.992 103.105 53.9038C102.851 53.8155 102.582 53.7781 102.313 53.7937Z" fill="#FFCF39"/>
<path d="M76.4361 70.9699V92.6663" stroke="#FAF3AB" stroke-width="0.8" stroke-miterlimit="10"/>
<path d="M83.6742 80.915H59.2505" stroke="#FAF3AB" stroke-width="0.8" stroke-miterlimit="10"/>
<path d="M35.9567 5.52768e-05C26.4468 -0.0166183 17.3189 3.73935 10.5773 10.4432C3.83572 17.1471 0.0315337 26.2509 3.81148e-05 35.7557C-0.0130903 42.3966 1.85748 48.9052 5.39486 54.5267L33.5219 100.3C33.7375 100.666 34.0325 100.98 34.3853 101.217C34.738 101.454 35.1396 101.609 35.5603 101.67C36.1546 101.77 36.765 101.686 37.3108 101.431C37.8565 101.175 38.3117 100.76 38.6161 100.241L66.8192 54.0513C70.1655 48.5358 71.928 42.206 71.9134 35.7557C71.8819 26.2509 68.0777 17.1471 61.3361 10.4432C54.5945 3.73935 45.4667 -0.0166183 35.9567 5.52768e-05ZM35.9567 53.6352C32.4224 53.6176 28.9725 52.554 26.0425 50.5787C23.1124 48.6034 20.8334 45.8049 19.493 42.5364C18.1527 39.2678 17.8111 35.6757 18.5114 32.2133C19.2117 28.7509 20.9225 25.5734 23.4279 23.0818C25.9332 20.5903 29.1209 18.8962 32.5886 18.2136C36.0563 17.5309 39.6486 17.8901 42.9122 19.2459C46.1758 20.6018 48.9645 22.8934 50.9263 25.8317C52.888 28.7701 53.935 32.2233 53.935 35.7557C53.9324 38.1105 53.465 40.4416 52.5595 42.6155C51.654 44.7893 50.3282 46.7633 48.6581 48.4242C46.988 50.0851 45.0064 51.4004 42.8269 52.2946C40.6474 53.1888 38.3127 53.6443 35.9567 53.6352Z" fill="#FD003A"/>
<path d="M36.1814 0V17.8795C40.8833 17.9434 45.371 19.855 48.6735 23.2008C51.9759 26.5466 53.8274 31.0575 53.8274 35.7573C53.8274 40.4572 51.9759 44.968 48.6735 48.3138C45.371 51.6596 40.8833 53.5713 36.1814 53.6352V101.697C36.7133 101.714 37.2399 101.586 37.7052 101.328C38.1705 101.07 38.5573 100.691 38.8243 100.231L66.8522 54.0413C70.1791 48.5191 71.9295 42.1918 71.9134 35.7458C71.909 26.2725 68.144 17.1879 61.4449 10.4862C54.7457 3.78444 45.6598 0.0131187 36.1814 0V0Z" fill="#E50027"/>
</svg>
