<svg xmlns="http://www.w3.org/2000/svg" xmlns:xlink="http://www.w3.org/1999/xlink" width="582.191" height="417" viewBox="0 0 582.191 417"><defs><style>.a,.b{fill:#ffcf39;}.a,.g,.h,.o{opacity:0.1;}.c,.f{opacity:0.2;}.d{fill:#636780;}.e{opacity:0.4;}.f,.g,.l,.z{fill:#fff;}.i{fill:#dce0ed;}.j{fill:#f0f0f4;}.k{fill:none;}.m{fill:#a8a8a8;}.n{fill:url(#a);}.p{fill:url(#b);}.q{fill:#985c7e;}.r{fill:#ecb4b6;}.s{opacity:0.07;}.t{opacity:0.05;}.u{fill:#cc8294;}.v{fill:#4b4b5b;}.w{opacity:0.03;}.x{fill:#ff718d;}.y{fill:#e7c7ca;}.z{opacity:0.3;}</style><linearGradient id="a" x1="0.5" y1="1" x2="0.5" gradientUnits="objectBoundingBox"><stop offset="0" stop-color="gray" stop-opacity="0.251"/><stop offset="0.54" stop-color="gray" stop-opacity="0.122"/><stop offset="1" stop-color="gray" stop-opacity="0.102"/></linearGradient><linearGradient id="b" x1="0" y1="0.5" x2="1" y2="0.5" xlink:href="#a"/></defs><g transform="translate(0 -0.053)"><ellipse class="a" cx="87.628" cy="9.693" rx="87.628" ry="9.693" transform="translate(220.419 397.668)"/><path class="a" d="M599.177,326.85c-13.635,28.138-41.337,46.954-70.035,59.362-38.642,16.71-81.2,23.338-123.164,20.535q-11.038-.729-22-2.346a277.45,277.45,0,0,1-73.552-21.439q-10.114-4.569-19.868-9.939a254.041,254.041,0,0,1-31.039-20.3q-3.712-2.834-7.321-5.811c-1.668-1.376-3.322-2.782-5-4.148a63.1,63.1,0,0,0-11.253-7.665,40.221,40.221,0,0,0-3.768-1.663c-12.875-4.9-27.722-3.049-41.127.77-10.185,2.88-20.109,6.859-30.31,9.7a100.624,100.624,0,0,1-13.815,2.936,73.521,73.521,0,0,1-31.054-2.706l-.857-.267q-2.156-.678-4.276-1.484l-.857-.329q-2.054-.791-4.02-1.7l-.857-.39q-2.054-.955-4.02-2.018c-.472-.246-.939-.513-1.4-.765a84.024,84.024,0,0,1-20.1-15.653c-.169-.169-.329-.344-.513-.513-.816-.883-1.617-1.781-2.392-2.7-.287-.339-.575-.678-.857-1.027q-1.381-1.689-2.664-3.445c-.128-.169-.252-.344-.375-.513a74.229,74.229,0,0,1-8.661-15.658c-.072-.169-.139-.344-.2-.513q-1.027-2.644-1.874-5.375c-.231-.76-.452-1.54-.647-2.3-.067-.226-.128-.457-.185-.683C58.3,277.653,58,266.056,58,254.525V250.5c.082-18.651.37-37.62,3.121-56.015a2.338,2.338,0,0,1,.056-.38,174.938,174.938,0,0,1,3.753-18.389,135.661,135.661,0,0,1,6.32-18.636c6.33-14.888,15.535-28.436,25.756-40.993,25.72-31.578,59.485-58.125,99-68.028,42.585-10.694,89.913-.447,124.263,26.9,10.473,8.337,19.883,18.21,31.645,24.6,10.268,5.565,22.286,7.87,33.282,3.491,9.087-3.594,15-5.416,25.207-4.867a211.284,211.284,0,0,1,61.79,12.932c.8.293,1.6.6,2.4.9C526.3,131.8,570.751,171.1,593.843,221.6q.919,2,1.781,4.035C609.4,257.785,614.368,295.5,599.177,326.85Z" transform="translate(-45.155 -43.84)"/><path class="a" d="M160.742,228.979V423.631a100.624,100.624,0,0,1-13.815,2.937,73.521,73.521,0,0,1-31.054-2.706l-.857-.267q-2.156-.678-4.276-1.484l-.857-.329q-2.054-.791-4.02-1.7l-.857-.39q-2.054-.955-4.02-2.018c-.472-.246-.939-.513-1.4-.765a84.024,84.024,0,0,1-20.1-15.653c-.169-.169-.329-.344-.513-.513-.816-.883-1.617-1.781-2.392-2.7-.287-.339-.575-.678-.857-1.027q-1.381-1.689-2.664-3.445c-.128-.169-.252-.344-.375-.513A74.23,74.23,0,0,1,64.017,377.4c-.072-.169-.139-.344-.2-.513q-1.027-2.644-1.874-5.375c-.231-.76-.452-1.54-.647-2.3-.067-.226-.128-.457-.185-.683C58.3,357.38,58,345.782,58,334.252v-4.03c.082-18.651.37-37.62,3.121-56.015a2.337,2.337,0,0,1,.056-.38,174.939,174.939,0,0,1,3.753-18.389h52.411V228.979h10.478V207.73h22.5v21.249Z" transform="translate(-45.155 -123.567)"/><path class="a" d="M764.278,390.542c-13.635,28.138-41.337,46.954-70.035,59.362-38.642,16.71-81.2,23.338-123.164,20.535q-11.038-.729-22-2.346a277.452,277.452,0,0,1-73.552-21.439q-10.114-4.569-19.868-9.939a254.036,254.036,0,0,1-31.039-20.3q-3.712-2.834-7.321-5.811c-1.668-1.376-3.322-2.782-5-4.148a63.1,63.1,0,0,0-11.253-7.665,40.211,40.211,0,0,0-3.768-1.663V317.473h95.278V335.2h41.815V205.531H583.59v51.851h24.344v-30.7h20.114V193.888h9.241V174.78c.8.293,1.6.6,2.4.9v18.21h9V226.7H668.8v30.7h29.637V374.366h47.107V289.3h15.181C774.5,321.478,779.469,359.2,764.278,390.542Z" transform="translate(-210.257 -107.533)"/><rect class="a" width="21.998" height="21.998" transform="translate(338.824 117.507)"/><rect class="a" width="21.998" height="21.998" transform="translate(338.824 163.11)"/><rect class="a" width="21.998" height="21.998" transform="translate(338.824 208.709)"/><rect class="a" width="21.998" height="21.998" transform="translate(338.824 254.312)"/><rect class="a" width="21.998" height="21.998" transform="translate(338.824 299.915)"/><path class="a" d="M714.968,716.81v17.373q-11.038-.729-22-2.346V716.81Z" transform="translate(-354.146 -371.296)"/><rect class="a" width="77.002" height="9.965" transform="translate(194.277 238.372)"/><rect class="a" width="77.002" height="9.965" transform="translate(194.277 268.63)"/><path class="a" d="M495.784,626v9.96h-56.9q-3.712-2.834-7.321-5.811c-1.668-1.376-3.322-2.783-5-4.148Z" transform="translate(-224.505 -327.106)"/><path class="a" d="M536.874,685v9.965h-6.007Q520.754,690.37,511,685Z" transform="translate(-265.595 -355.817)"/><rect class="a" width="14.318" height="14.318" transform="translate(397.565 177.074)"/><rect class="a" width="14.318" height="14.318" transform="translate(87.485 110.346)"/><rect class="a" width="14.318" height="14.318" transform="translate(87.485 143.612)"/><rect class="a" width="14.318" height="14.318" transform="translate(87.485 176.879)"/><rect class="a" width="14.318" height="14.318" transform="translate(87.485 210.141)"/><rect class="a" width="14.318" height="14.318" transform="translate(87.485 243.408)"/><rect class="a" width="14.318" height="14.318" transform="translate(87.485 276.675)"/><rect class="a" width="14.318" height="14.318" transform="translate(452.239 177.074)"/><rect class="a" width="14.318" height="14.318" transform="translate(397.565 212.4)"/><rect class="a" width="14.318" height="14.318" transform="translate(452.239 212.4)"/><rect class="a" width="14.318" height="14.318" transform="translate(397.565 247.72)"/><rect class="a" width="14.318" height="14.318" transform="translate(452.239 247.72)"/><rect class="a" width="14.318" height="14.318" transform="translate(397.565 283.046)"/><rect class="a" width="14.318" height="14.318" transform="translate(452.239 283.046)"/><rect class="a" width="14.318" height="14.318" transform="translate(397.565 318.371)"/><rect class="a" width="14.318" height="14.318" transform="translate(452.239 318.371)"/><path class="a" d="M774.41,698.136V688.9h14.318v7.921Z" transform="translate(-376.845 -335.208)"/><path class="a" d="M64.06,336.48v8.214h54.762V336.48Zm4.877,7.7h-4.02v-7.187h4.02Zm4.877,0h-4.02v-7.187h4.02Zm4.877,0h-4.02v-7.187h4.02Zm4.877,0h-4.02v-7.187h4.02Zm4.877,0h-4.02v-7.187h4.02Zm4.877,0H89.3v-7.187h4.02Zm4.877,0H94.18v-7.187H98.2Zm4.877,0h-4.02v-7.187h4.02Zm4.877,0h-4.02v-7.187h4.02Zm4.877,0h-4.02v-7.187h4.02Zm5.134,0h-4.276v-7.187h4.276Z" transform="translate(-48.104 -186.219)"/><path class="a" d="M64.06,382.94v8.188h54.762V382.94Zm4.877,7.675h-4.02v-7.162h4.02Zm4.877,0h-4.02v-7.162h4.02Zm4.877,0h-4.02v-7.162h4.02Zm4.877,0h-4.02v-7.162h4.02Zm4.877,0h-4.02v-7.162h4.02Zm4.877,0H89.3v-7.162h4.02Zm4.877,0H94.18v-7.162H98.2Zm4.877,0h-4.02v-7.162h4.02Zm4.877,0h-4.02v-7.162h4.02Zm4.877,0h-4.02v-7.162h4.02Zm5.134,0h-4.276v-7.162h4.276Z" transform="translate(-48.104 -208.828)"/><path class="a" d="M64.06,429.39v8.188h54.762V429.39Zm4.877,7.675h-4.02V429.9h4.02Zm4.877,0h-4.02V429.9h4.02Zm4.877,0h-4.02V429.9h4.02Zm4.877,0h-4.02V429.9h4.02Zm4.877,0h-4.02V429.9h4.02Zm4.877,0H89.3V429.9h4.02Zm4.877,0H94.18V429.9H98.2Zm4.877,0h-4.02V429.9h4.02Zm4.877,0h-4.02V429.9h4.02Zm4.877,0h-4.02V429.9h4.02Zm5.134,0h-4.276V429.9h4.276Z" transform="translate(-48.104 -231.431)"/><path class="a" d="M64.06,475.84v8.214h54.762V475.84Zm4.877,7.7h-4.02v-7.187h4.02Zm4.877,0h-4.02v-7.187h4.02Zm4.877,0h-4.02v-7.187h4.02Zm4.877,0h-4.02v-7.187h4.02Zm4.877,0h-4.02v-7.187h4.02Zm4.877,0H89.3v-7.187h4.02Zm4.877,0H94.18v-7.187H98.2Zm4.877,0h-4.02v-7.187h4.02Zm4.877,0h-4.02v-7.187h4.02Zm4.877,0h-4.02v-7.187h4.02Zm5.134,0h-4.276v-7.187h4.276Z" transform="translate(-48.104 -254.035)"/><path class="a" d="M64.47,522.29c.2.77.416,1.54.647,2.3V522.8h4.02v7.187H66.991c.062.169.128.344.2.513h51.851V522.29Zm9.544,7.7h-4.02V522.8h4.02Zm4.877,0h-4.02V522.8h4.02Zm4.877,0h-4.02V522.8h4.02Zm4.877,0h-4.02V522.8h4.02Zm4.877,0H89.5V522.8h4.02Zm4.877,0h-4.02V522.8H98.4Zm4.877,0h-4.02V522.8h4.02Zm4.877,0h-4.02V522.8h4.02Zm4.877,0h-4.02V522.8h4.02Zm5.134,0h-4.276V522.8h4.276Z" transform="translate(-48.304 -276.639)"/><path class="a" d="M86.64,568.74c.123.169.246.344.375.513h2.664V572.7c.282.344.57.683.857,1.027v-4.466h4.02v7.187H92.929a6.918,6.918,0,0,0,.513.513h36.393v-8.214Zm12.793,7.7h-4.02v-7.187h4.02Zm4.877,0h-4.02v-7.187h4.02Zm4.877,0h-4.02v-7.187h4.02Zm4.877,0h-4.02v-7.187h4.02Zm4.877,0h-4.02v-7.187h4.02Zm4.877,0H119.8v-7.187h4.02Zm5.134,0h-4.276v-7.187h4.276Z" transform="translate(-59.092 -299.242)"/><path class="a" d="M139,615.19c.462.262.929.513,1.4.765V615.7h4.02v2.269l.857.39V615.7h4.02v4.359l.857.329V615.7h4.276v6.161l.857.267V615.19Z" transform="translate(-84.572 -321.846)"/><path class="a" d="M457.587,197.985s-12.234-.734-10.781,7.839a2.09,2.09,0,0,0,1.083,2.2s.026-.637,1.258-.421a5.451,5.451,0,0,0,1.33.067A2.747,2.747,0,0,0,452.1,207h0s3.44-1.422,4.78-7.044c0,0,.991-1.227.95-1.54l-2.054.883a3.706,3.706,0,0,1,.149,2.726s-.067-2.675-.462-2.608c-.082,0-1.073.513-1.073.513s1.212,2.6.3,4.482c0,0,.349-3.2-.678-4.292l-1.453.847s1.417,2.68.457,4.867c0,0,.246-3.352-.765-4.661l-1.314,1.027s1.33,2.644.513,4.456c0,0-.108-3.9-.806-4.2a8.215,8.215,0,0,0-1.33,1.432s.914,1.92.349,2.931c0,0-.349-2.6-.631-2.613a8.625,8.625,0,0,0-1.268,2.906,6.283,6.283,0,0,1,.991-3.08,3.46,3.46,0,0,0-1.761.909s.18-1.217,2.053-1.325a7.991,7.991,0,0,1,1.2-1.386,7.564,7.564,0,0,0-2.978.344s.991-1.15,3.316-.631l1.3-1.058a11.123,11.123,0,0,0-3.5.026s1.191-1.027,3.825-.277l1.417-.847a12.947,12.947,0,0,0-3.322-.287,5.092,5.092,0,0,1,3.732.062l1.027-.457s-1.54-.3-1.971-.344-.472-.175-.472-.175a5.3,5.3,0,0,1,2.865.318A14.072,14.072,0,0,0,457.587,197.985Z" transform="translate(-234.299 -118.817)"/><path class="a" d="M404.381,279.138s-4.179,11.525,4.451,12.578a2.1,2.1,0,0,0,2.423-.416s-.606-.205-.046-1.325a5.755,5.755,0,0,0,.436-1.258,2.757,2.757,0,0,0-.18-1.745h0s-.385-3.7-5.4-6.581c0,0-.893-1.3-1.206-1.35l.262,2.228a3.7,3.7,0,0,1,2.654.631s-2.567-.693-2.634-.3c0,.082.19,1.176.19,1.176s2.834-.426,4.384.991c0,0-2.967-1.242-4.312-.57l.4,1.633s2.978-.6,4.8.945c0,0-3.147-1.191-4.687-.59l.611,1.54s2.911-.513,4.42.77c0,0-3.773-1.027-4.256-.421a8.082,8.082,0,0,0,1,1.679s2.1-.329,2.911.513c0,0-2.593-.406-2.685-.133a8.8,8.8,0,0,0,2.423,2.054,6.279,6.279,0,0,1-2.664-1.817,3.48,3.48,0,0,0,.375,1.941s-1.119-.513-.688-2.331a8.266,8.266,0,0,1-.991-1.54,7.535,7.535,0,0,0-.513,2.947s-.827-1.273.339-3.358l-.652-1.54a10.289,10.289,0,0,0-.95,3.337s-.637-1.427.821-3.742l-.411-1.6a12.7,12.7,0,0,0-1.217,3.08A5.1,5.1,0,0,1,404.9,283l-.149-1.1s-.724,1.376-.893,1.792-.3.406-.3.406a5.257,5.257,0,0,1,1.119-2.654A12.721,12.721,0,0,0,404.381,279.138Z" transform="translate(-213.22 -158.268)"/><path class="a" d="M562.419,260.223s-4.184,11.52,4.451,12.573a2.079,2.079,0,0,0,2.418-.416s-.6-.2-.046-1.325a5.851,5.851,0,0,0,.441-1.253,2.778,2.778,0,0,0-.185-1.751h0s-.385-3.7-5.4-6.582c0,0-.893-1.294-1.206-1.35l.257,2.233a3.781,3.781,0,0,1,2.664.631s-2.567-.7-2.634-.3c0,.082.19,1.176.19,1.176s2.834-.426,4.379.986c0,0-2.967-1.242-4.307-.57l.4,1.633s2.972-.6,4.795.945c0,0-3.147-1.186-4.682-.59l.611,1.54s2.911-.513,4.42.765c0,0-3.778-1.027-4.256-.421a8.087,8.087,0,0,0,1,1.684s2.1-.334,2.906.513c0,0-2.593-.406-2.685-.139a8.851,8.851,0,0,0,2.428,2.054,6.283,6.283,0,0,1-2.664-1.823,3.45,3.45,0,0,0,.375,1.946s-1.119-.513-.693-2.336a7.859,7.859,0,0,1-.986-1.54,7.446,7.446,0,0,0-.513,2.952s-.821-1.273.339-3.358l-.647-1.54a10.39,10.39,0,0,0-.955,3.342s-.637-1.432.821-3.748l-.406-1.6a12.8,12.8,0,0,0-1.217,3.08,5.072,5.072,0,0,1,1.114-3.563l-.149-1.1s-.719,1.376-.893,1.792-.293.4-.293.4a5.278,5.278,0,0,1,1.114-2.654A13.034,13.034,0,0,0,562.419,260.223Z" transform="translate(-290.124 -149.061)"/><path class="a" d="M336.511,443.7s-4.179,11.525,4.451,12.573a2.089,2.089,0,0,0,2.423-.416s-.606-.2-.046-1.319a5.581,5.581,0,0,0,.436-1.258,2.772,2.772,0,0,0-.18-1.751h0s-.385-3.7-5.4-6.581c0,0-.9-1.294-1.212-1.35l.262,2.233a3.715,3.715,0,0,1,2.659.631s-2.567-.7-2.639-.3c0,.082.19,1.176.19,1.176s2.834-.426,4.384.986c0,0-2.967-1.242-4.312-.57l.406,1.633s2.972-.6,4.795.945c0,0-3.147-1.186-4.687-.59l.611,1.54s2.911-.513,4.42.765c0,0-3.773-1.027-4.256-.421a7.931,7.931,0,0,0,1,1.684s2.095-.334,2.906.513c0,0-2.593-.406-2.685-.139a8.8,8.8,0,0,0,2.423,2.054,6.284,6.284,0,0,1-2.659-1.823,3.475,3.475,0,0,0,.37,1.946s-1.114-.513-.688-2.336a8.1,8.1,0,0,1-.991-1.54,7.569,7.569,0,0,0-.513,2.952s-.821-1.273.339-3.358l-.647-1.54a10.391,10.391,0,0,0-.955,3.342s-.637-1.432.821-3.742l-.411-1.6a12.8,12.8,0,0,0-1.217,3.08,5.1,5.1,0,0,1,1.119-3.563l-.149-1.1s-.724,1.376-.893,1.792-.3.4-.3.4A5.314,5.314,0,0,1,336.814,446,12.561,12.561,0,0,0,336.511,443.7Z" transform="translate(-180.193 -238.346)"/><path class="a" d="M304.189,232.108s-4.184,11.525,4.446,12.578a2.1,2.1,0,0,0,2.423-.416s-.6-.205-.046-1.325a5.493,5.493,0,0,0,.436-1.258,2.777,2.777,0,0,0-.18-1.751h0s-.385-3.7-5.4-6.576c0,0-.893-1.3-1.212-1.35l.262,2.228a3.715,3.715,0,0,1,2.659.631s-2.567-.693-2.634-.3c0,.082.19,1.176.19,1.176s2.829-.426,4.379.986c0,0-2.967-1.237-4.307-.57l.4,1.638s2.972-.6,4.795.945c0,0-3.147-1.191-4.682-.6l.611,1.54s2.911-.513,4.415.765c0,0-3.773-1.027-4.256-.416a7.921,7.921,0,0,0,1,1.679s2.095-.329,2.906.513c0,0-2.593-.406-2.685-.133a8.884,8.884,0,0,0,2.423,2.054,6.247,6.247,0,0,1-2.659-1.817,3.434,3.434,0,0,0,.375,1.941s-1.119-.513-.693-2.331a8.266,8.266,0,0,1-.991-1.54,7.569,7.569,0,0,0-.513,2.952s-.821-1.273.339-3.357l-.647-1.54a10.392,10.392,0,0,0-.955,3.337s-.637-1.427.821-3.743l-.411-1.6a12.926,12.926,0,0,0-1.217,3.08,5.092,5.092,0,0,1,1.119-3.563l-.149-1.1s-.719,1.376-.893,1.792-.3.4-.3.4a5.314,5.314,0,0,1,1.119-2.654A13.128,13.128,0,0,0,304.189,232.108Z" transform="translate(-164.463 -135.382)"/><path class="a" d="M365.58,354.043s3.229,11.808,10.884,7.7a2.1,2.1,0,0,0,1.74-1.735s-.611.185-.8-1.052a6.06,6.06,0,0,0-.365-1.283,2.8,2.8,0,0,0-1.16-1.324h0s-2.449-2.8-8.214-2.264c0,0-1.479-.544-1.761-.406l1.494,1.674a3.749,3.749,0,0,1,2.536-1.027s-2.51.919-2.32,1.273c.036.077.832.852.832.852s2.054-1.982,4.148-1.72c0,0-3.142.7-3.85,2.018l1.273,1.109s2.079-2.208,4.461-2c0,0-3.255.842-4.169,2.218l1.4.919s2.054-2.11,4.051-1.925c0,0-3.665,1.355-3.717,2.11a7.906,7.906,0,0,0,1.781.8s1.54-1.479,2.664-1.268c0,0-2.351,1.16-2.274,1.437a9.136,9.136,0,0,0,3.157.267,6.232,6.232,0,0,1-3.224.046,3.486,3.486,0,0,0,1.427,1.376s-1.212.221-1.91-1.509a8,8,0,0,1-1.7-.693,7.533,7.533,0,0,0,1.278,2.706s-1.407-.565-1.658-2.937l-1.422-.893a10.73,10.73,0,0,0,1.15,3.28s-1.345-.8-1.489-3.532l-1.258-1.068a12.723,12.723,0,0,0,.8,3.234,5.139,5.139,0,0,1-1.145-3.558l-.755-.811s.205,1.54.3,1.977,0,.513,0,.513a5.257,5.257,0,0,1-.616-2.813A12.811,12.811,0,0,0,365.58,354.043Z" transform="translate(-194.831 -194.578)"/><path class="a" d="M536.21,374.633s3.229,11.808,10.889,7.7a2.089,2.089,0,0,0,1.735-1.735s-.606.185-.8-1.052a5.506,5.506,0,0,0-.365-1.283,2.787,2.787,0,0,0-1.155-1.325h0s-2.449-2.8-8.214-2.264c0,0-1.479-.544-1.766-.406l1.5,1.674a3.75,3.75,0,0,1,2.536-1.027s-2.51.919-2.326,1.278c.036.072.832.847.832.847s2.054-1.982,4.148-1.72c0,0-3.137.7-3.845,2.018l1.268,1.109s2.084-2.208,4.461-2c0,0-3.255.842-4.169,2.218l1.4.919s2.054-2.11,4.056-1.925c0,0-3.666,1.355-3.722,2.115a8,8,0,0,0,1.787.8s1.54-1.479,2.659-1.268c0,0-2.351,1.165-2.269,1.437a9.136,9.136,0,0,0,3.157.267,6.232,6.232,0,0,1-3.224.046,3.449,3.449,0,0,0,1.427,1.376s-1.212.221-1.915-1.509a8,8,0,0,1-1.7-.693,7.629,7.629,0,0,0,1.283,2.711s-1.407-.57-1.658-2.942l-1.422-.893a10.676,10.676,0,0,0,1.145,3.28s-1.345-.8-1.489-3.532l-1.253-1.068a12.869,12.869,0,0,0,.791,3.234,5.123,5.123,0,0,1-1.14-3.558l-.755-.811s.205,1.54.3,1.977,0,.513,0,.513a5.257,5.257,0,0,1-.616-2.813S536.328,374.525,536.21,374.633Z" transform="translate(-277.863 -204.597)"/><path class="b" d="M922.97,661.971l5.17,5.457,8.2-14.446-.739-1.622Z" transform="translate(-449.138 -316.941)"/><path class="c" d="M922.97,661.971l5.17,5.457,8.2-14.446-.739-1.622Z" transform="translate(-449.138 -316.941)"/><path class="d" d="M184.546,628.329c0,27.414-18.774,33.231-37.59,33.231s-29.406-23.1-29.406-50.527S132.8,561.39,151.618,561.39,184.546,600.915,184.546,628.329Z" transform="translate(-74.134 -295.666)"/><path class="c" d="M184.546,628.329c0,27.414-18.774,33.231-37.59,33.231s-29.406-23.1-29.406-50.527S132.8,561.39,151.618,561.39,184.546,600.915,184.546,628.329Z" transform="translate(-74.134 -295.666)"/><path class="d" d="M170.683,612.758c0,27.414-12.085,49.644-26.993,49.644s-27.584-22.229-27.584-49.644c0-3.789-.585-7.475-.149-11.017,2.726-22.111,14.888-38.621,27.722-38.621C158.6,563.12,170.683,585.344,170.683,612.758Z" transform="translate(-73.28 -296.507)"/><path class="b" d="M187.917,419.068S164.256,445.6,156.74,467.71l204.324,22.558L470.516,467.71s-43.35-51.944-55.065-53.951S187.917,419.068,187.917,419.068Z" transform="translate(-93.204 -223.656)"/><path class="e" d="M187.917,419.068S164.256,445.6,156.74,467.71l204.324,22.558L470.516,467.71s-43.35-51.944-55.065-53.951S187.917,419.068,187.917,419.068Z" transform="translate(-93.204 -223.656)"/><path class="b" d="M476.53,507.8l32.795,92.008V576.523l9.128-26.069,25.289-11.2,32.066,14.549,11.469,3.583,1-21.223-38.123-18.795-17.747-8.517-40.624-3.542-11.207-2Z" transform="translate(-231.89 -244.896)"/><path class="b" d="M531.883,561.6l29.838,3.424c-1.355-11.916,7.49-11.916,7.49-11.916l-29.848-5.165H525.43" transform="translate(-272.617 -289.121)"/><path class="d" d="M569.745,691.857H590.9l61.251-2.053s1.324,11.679,17.455,8.933c0,0,8.881.57,9.836-4.256s-20.227-49.423-20.227-49.423L630.334,623.5l-26.182-6.356-18.795,5.529-11.941,18.995-7.516,26Z" transform="translate(-292.311 -322.795)"/><path class="c" d="M569.745,691.857H590.9l61.251-2.053s1.324,11.679,17.455,8.933c0,0,8.881.57,9.836-4.256s-20.227-49.423-20.227-49.423L630.334,623.5l-26.182-6.356-18.795,5.529-11.941,18.995-7.516,26Z" transform="translate(-292.311 -322.795)"/><path class="b" d="M205.643,435.33c-3.029,2.474-12.6,11.351-20.571,30.12a4.538,4.538,0,0,0,3.594,6.289l48.042,6.227a7.259,7.259,0,0,0,7.988-5.473l8.445-34.453a3.44,3.44,0,0,0-3.409-4.261l-41.979.78a3.4,3.4,0,0,0-2.11.77Z" transform="translate(-106.813 -233.567)"/><path class="f" d="M205.643,435.33c-3.029,2.474-12.6,11.351-20.571,30.12a4.538,4.538,0,0,0,3.594,6.289l48.042,6.227a7.259,7.259,0,0,0,7.988-5.473l8.445-34.453a3.44,3.44,0,0,0-3.409-4.261l-41.979.78a3.4,3.4,0,0,0-2.11.77Z" transform="translate(-106.813 -233.567)"/><path class="b" d="M346.866,433.143l54.1-.513a9.192,9.192,0,0,1,8.7,6.54l16.87,38.313c1.494,4.487-1.735,9.159-6.161,8.9l-78.968-5.2c-6.551-.38-11.186-7.059-9.672-13.943l5.724-26.013A9.937,9.937,0,0,1,346.866,433.143Z" transform="translate(-178.222 -233.008)"/><path class="f" d="M346.866,433.143l54.1-.513a9.192,9.192,0,0,1,8.7,6.54l16.87,38.313c1.494,4.487-1.735,9.159-6.161,8.9l-78.968-5.2c-6.551-.38-11.186-7.059-9.672-13.943l5.724-26.013A9.937,9.937,0,0,1,346.866,433.143Z" transform="translate(-178.222 -233.008)"/><path class="b" d="M521.816,426.858c14.79-.267,53.987-1.386,73.485-5.878,0,0,33.462,25.207,43.488,44.222,0,0-52.159,12.7-88.183,14.416a13.651,13.651,0,0,1-12.922-7.7L518.53,432.223a3.727,3.727,0,0,1,3.286-5.365Z" transform="translate(-269.075 -227.339)"/><path class="f" d="M521.816,426.858c14.79-.267,53.987-1.386,73.485-5.878,0,0,33.462,25.207,43.488,44.222,0,0-52.159,12.7-88.183,14.416a13.651,13.651,0,0,1-12.922-7.7L518.53,432.223a3.727,3.727,0,0,1,3.286-5.365Z" transform="translate(-269.075 -227.339)"/><path class="g" d="M559.346,442.229c6.161-.108,18.179-.426,29.914-1.3a56.23,56.23,0,0,1,46.322,18.733l.38.431a7.31,7.31,0,0,1-3.994,11.941c-12.947,2.777-35,7.018-52.026,7.839a9.754,9.754,0,0,1-9.277-5.5L557,446.044a2.659,2.659,0,0,1,2.346-3.814Z" transform="translate(-287.851 -236.966)"/><path class="b" d="M354.016,627.528v14.149L197.61,617.8c-7.665-2.654-12.239-1.027-12.239-1.027-5.647-2.757-9.754-13.512-9.872-13.861h0l2.952-8.548L154.476,554.71l-31.9,1.325c5.016-40.1,19.457-42.015,19.457-42.015L329.42,531.413Z" transform="translate(-76.581 -272.614)"/><path class="h" d="M493.2,559.943c-1.227,1.345-3.47,2.567-7.608,2.454-6.34-.154-7.542-5.565-7.7-8.794a15.123,15.123,0,0,1,.067-2.372l8.306-2.541,1.7,1.586,5.016,4.7A3.547,3.547,0,0,1,493.2,559.943Z" transform="translate(-249.475 -289.486)"/><path class="i" d="M493.2,559.083c-1.227,1.345-3.47,2.567-7.608,2.454-6.34-.154-7.542-5.565-7.7-8.794a15.123,15.123,0,0,1,.067-2.372l8.306-2.541,1.7,1.586,5.016,4.7A3.547,3.547,0,0,1,493.2,559.083Z" transform="translate(-249.475 -289.067)"/><path class="h" d="M487.974,549.416c-1.063,2.706-4.2,3.44-4.2,3.44l-5.868-.113a15.119,15.119,0,0,1,.067-2.372l8.306-2.541Z" transform="translate(-249.48 -289.067)"/><path class="j" d="M446.51,510.51s-13.266,1.776-9.729,13.769c2.68,9.087,8.661,9.7,11.4,9.467a45.424,45.424,0,0,1,4.8-.175l10.488.211s5.924-1.381,4.266-7.352S458.451,509.514,446.51,510.51Z" transform="translate(-229.187 -270.875)"/><ellipse class="c" cx="6.119" cy="7.962" rx="6.119" ry="7.962" transform="translate(139.377 259.975)"/><rect class="h" width="22.907" height="5.396" rx="2.698" transform="translate(135.933 264.352) rotate(6.09)"/><rect class="j" width="22.907" height="5.396" rx="2.698" transform="translate(135.933 263.908) rotate(6.09)"/><path class="h" d="M114.811,621.674s-10.981-10.837,2.356-36.922c0,0,17.1-25.874,43.637,2.433,0,0,15.258,17.024,19.678,44.222l-10.391.221s-9.954-48.206-39.14-45.773C130.951,585.851,109.723,589.609,114.811,621.674Z" transform="translate(-70.732 -301.773)"/><path class="h" d="M113.969,624.252s-10.986-10.832,2.356-36.927c0,0,17.1-25.869,43.637,2.433,0,0,15.258,17.029,19.683,44.222l-10.4.221s-9.965-48.2-39.15-45.768C130.1,588.433,108.871,592.191,113.969,624.252Z" transform="translate(-70.321 -303.026)"/><path class="b" d="M113.969,622.532s-10.986-10.837,2.356-36.927c0,0,17.1-25.869,43.637,2.433,0,0,15.258,17.024,19.683,44.222l-10.4.221s-9.965-48.2-39.15-45.773C130.1,586.708,108.871,590.471,113.969,622.532Z" transform="translate(-70.321 -302.189)"/><path class="c" d="M113.969,622.532s-10.986-10.837,2.356-36.927c0,0,17.1-25.869,43.637,2.433,0,0,15.258,17.024,19.683,44.222l-10.4.221s-9.965-48.2-39.15-45.773C130.1,586.708,108.871,590.471,113.969,622.532Z" transform="translate(-70.321 -302.189)"/><path class="k" d="M404.177,711.577v14.149L247.771,701.849c-7.665-2.654-12.239-1.027-12.239-1.027-5.647-2.757-9.754-13.512-9.872-13.861h0l10.4-.221,30.074,4.2,109.3,15.7s19.385,2.213,20.489,3.08S404.177,711.577,404.177,711.577Z" transform="translate(-126.742 -356.664)"/><path class="h" d="M404.177,710.712v14.149L247.771,700.979c-7.665-2.649-12.239-1.027-12.239-1.027-5.647-2.757-9.754-13.512-9.872-13.861h0l10.4-.221,30.074,4.2,109.3,15.7s19.385,2.213,20.489,3.08S404.177,710.712,404.177,710.712Z" transform="translate(-126.742 -356.24)"/><path class="b" d="M404.177,711.577v14.149L247.771,701.849c-7.665-2.654-12.239-1.027-12.239-1.027-5.647-2.757-9.754-13.512-9.872-13.861h0l10.4-.221,30.074,4.2,109.3,15.7s19.385,2.213,20.489,3.08S404.177,711.577,404.177,711.577Z" transform="translate(-126.742 -356.664)"/><path class="c" d="M404.177,711.577v14.149L247.771,701.849c-7.665-2.654-12.239-1.027-12.239-1.027-5.647-2.757-9.754-13.512-9.872-13.861h0l10.4-.221,30.074,4.2,109.3,15.7s19.385,2.213,20.489,3.08S404.177,711.577,404.177,711.577Z" transform="translate(-126.742 -356.664)"/><path class="k" d="M859.307,633.75s-52.185,26.536-116.537,23.882c0,0-14.467.714-15.473-.611s3.732,5.575,3.732,5.575,1.786-1.869,3.558-1.869,9.867.6,9.867.6,92.511-3.917,116.172-24.924Z" transform="translate(-370.782 -330.878)"/><path class="c" d="M296.154,613.32c-9.718-31.2-9.2-52.965-7.054-65.712,2.331-13.861,7.044-20.4,7.09-20.458l.354.262c-.046.062-4.7,6.551-7.013,20.309-2.136,12.721-2.649,34.371,7.049,65.492Z" transform="translate(-156.988 -279.004)"/><path class="b" d="M775.823,593.961c.39,1.453,1.3,5.468-.144,6.551a5.524,5.524,0,0,0-1.4,2.623,40.824,40.824,0,0,0-1.253,6.222l-15.042,16.8-25.428,9.954-60.81,4.2-36.707-59.7-82.474-48.5,22.517-1.248c22.522-1.253,86.453-15.4,86.453-15.4l72.32,15.976a48.463,48.463,0,0,1,29.006,19.1A98.956,98.956,0,0,1,775.7,576.208c1.088,1.3,1.509,3.44,1.571,5.781A45.53,45.53,0,0,1,776,592.22c-.18.775-.3,1.237-.3,1.237S775.74,593.632,775.823,593.961Z" transform="translate(-285.824 -273.315)"/><path class="h" d="M557.114,669.447s-4.42-47.3,28.749-60.132c0,0,46.656-19.693,74.075,33.821l13.928,30.52s3.979,7.516,14.816,7.3c0,0,51.076-1.54,78.033-18.795l8.4-9.754s-4.2,13.707-8.4,16.8c0,0-16.582,19.457-76.95,23,0,0-24.688,2.649-32.132-20.787,0,0-10.1-53.068-61.4-52.626,0,0-30.14.59-30.88,52.477Z" transform="translate(-287.94 -317.264)"/><path class="b" d="M557.114,671.168s-4.42-47.292,28.749-60.132c0,0,46.656-19.688,74.075,33.821l13.928,30.515s3.979,7.516,14.816,7.3c0,0,51.076-1.54,78.033-18.795l8.43-9.729s-4.2,13.707-8.4,16.8c0,0-16.582,19.462-76.95,23,0,0-24.688,2.654-32.132-20.787,0,0-10.1-53.068-61.4-52.626,0,0-30.14.6-30.88,52.483Z" transform="translate(-287.94 -318.103)"/><path class="c" d="M557.114,671.168s-4.42-47.292,28.749-60.132c0,0,46.656-19.688,74.075,33.821l13.928,30.515s3.979,7.516,14.816,7.3c0,0,51.076-1.54,78.033-18.795l8.43-9.729s-4.2,13.707-8.4,16.8c0,0-16.582,19.462-76.95,23,0,0-24.688,2.654-32.132-20.787,0,0-10.1-53.068-61.4-52.626,0,0-30.14.6-30.88,52.483Z" transform="translate(-287.94 -318.103)"/><path class="c" d="M532.881,640.506l-2-65.8a67.711,67.711,0,0,0-.513-13.348c-.062-.277-1.648-7.064-3.768-10.92a7.684,7.684,0,0,0-2.567-2.6l-1.176-.318,1.314-.1c.909.175,1.771,1.119,2.567,2.439,1.448,1.987,3.152,5.478,4.051,11.428a67.687,67.687,0,0,1,.513,13.394l2,65.784Z" transform="translate(-271.367 -288.867)"/><path class="c" d="M609.077,596.507l-.431.072a27.123,27.123,0,0,0-3.948-9.847c-6.35-9.092-8.424-15.258-8.661-19.375a10.607,10.607,0,0,1,.513-4.22c.991-2.777,3.645-4.831,7.249-5.847h0l.77.128c-3.465.975-6.674,3.234-7.624,5.868a10.359,10.359,0,0,0-.513,4.163c.257,4.03,2.336,10.078,8.584,19.036A27.175,27.175,0,0,1,609.077,596.507Z" transform="translate(-306.959 -293.67)"/><path class="c" d="M813.539,560.6c-28.174-16.813-87.818-32.451-88.419-32.6l.113-.431c.6.159,60.306,15.812,88.532,32.656Z" transform="translate(-369.791 -279.203)"/><path class="c" d="M875.275,579.621c-10.637-18.713-39.279-34.14-61.436-43.791A398.363,398.363,0,0,0,767.81,519.2l.118-.426a398.377,398.377,0,0,1,46.086,16.654c22.219,9.677,50.948,25.155,61.646,43.976Z" transform="translate(-390.565 -274.926)"/><ellipse class="h" cx="5.093" cy="21.634" rx="5.093" ry="21.634" transform="matrix(0.799, -0.602, 0.602, 0.799, 455.279, 267.857)"/><ellipse class="i" cx="5.093" cy="21.634" rx="5.093" ry="21.634" transform="matrix(0.799, -0.602, 0.602, 0.799, 455.281, 266.972)"/><ellipse class="h" cx="3.306" cy="17.866" rx="3.306" ry="17.866" transform="matrix(0.799, -0.602, 0.602, 0.799, 459.562, 268.952)"/><ellipse class="j" cx="3.306" cy="17.866" rx="3.306" ry="17.866" transform="matrix(0.799, -0.602, 0.602, 0.799, 459.564, 268.513)"/><path class="h" d="M848.659,636.637s1.437-10.837,9.954-13.271c0,0,28.965-8.378,35.269-8.5,0,0,6.52-2,10.832,2.865l4.42,5.971s3.08,4.867-3.758,5.75c0,0-35.007,12.834-50.188,14.169a21.405,21.405,0,0,0-2.567.39C850.4,644.471,845.748,644.6,848.659,636.637Z" transform="translate(-429.455 -321.49)"/><path class="j" d="M849.526,635.776s1.438-10.837,9.949-13.271c0,0,28.965-8.378,35.269-8.5,0,0,6.52-2,10.832,2.865L910,622.839s3.08,4.862-3.763,5.75c0,0-35,12.834-50.183,14.169a21.345,21.345,0,0,0-2.567.39C851.267,643.61,846.61,643.743,849.526,635.776Z" transform="translate(-429.876 -321.07)"/><path class="h" d="M855.531,637.02s1.34-9.266,9.241-11.346c0,0,26.932-7.187,32.789-7.275,0,0,6.063-1.71,10.073,2.449l4.107,5.108s2.875,4.163-3.5,4.918c0,0-32.543,10.986-46.656,12.121a21.692,21.692,0,0,0-2.367.334C857.153,643.694,852.826,643.828,855.531,637.02Z" transform="translate(-432.831 -323.239)"/><path class="d" d="M856.4,636.139s1.335-9.241,9.241-11.346c0,0,26.932-7.187,32.789-7.275,0,0,6.063-1.715,10.072,2.449l4.107,5.134s2.875,4.158-3.5,4.918c0,0-32.548,10.986-46.661,12.121a21.481,21.481,0,0,0-2.357.334C858.016,642.843,853.688,642.956,856.4,636.139Z" transform="translate(-433.252 -322.809)"/><path class="j" d="M861.6,631.71l-.056-.442c.4-.046,39.73-4.933,48.2-11.469l.272.349C901.445,626.746,863.219,631.5,861.6,631.71Z" transform="translate(-436.176 -324.089)"/><path class="j" d="M857.547,639.368l-.077-.436c.431-.077,43.7-8.091,53.037-13.861l.236.375C901.338,631.261,857.983,639.285,857.547,639.368Z" transform="translate(-434.195 -326.654)"/><path class="j" d="M855.552,646.457l-.082-.431c.513-.1,50.311-9.5,56.472-15.006l.293.329C906.007,636.939,857.606,646.072,855.552,646.457Z" transform="translate(-433.222 -329.549)"/><path class="h" d="M906.557,657.634a210.147,210.147,0,0,1-38.5,11.341q-2.618.472-5.18,1.171c-2,.544-4.846,1.16-6.392.76-2.541-.667-3.948,2.428-1.2,4.862l.174.154a9.821,9.821,0,0,0,7.305,2.413l4.225-.354s34.278-7.516,43.837-13.379c0,0,4.364-2.993,4.7-6.361s.729-6.022-2.731-4.03S906.557,657.634,906.557,657.634Z" transform="translate(-432.401 -340.5)"/><path class="j" d="M907.37,656.843a210.165,210.165,0,0,1-38.5,11.33q-2.618.467-5.18,1.171c-2,.544-4.846,1.16-6.392.76-2.567-.667-3.948,2.428-1.2,4.862l.082.072a10.093,10.093,0,0,0,7.531,2.5l4.066-.339h.067c1.176-.257,34.4-7.6,43.791-13.348h.036c.293-.211,4.359-3.106,4.677-6.351.334-3.368.734-6.022-2.731-4.03-3.291,1.889-5.955,3.286-6.2,3.414Z" transform="translate(-432.793 -340.14)"/><path class="h" d="M910.587,662.4a215.334,215.334,0,0,1-31.937,10.047c-1.643.359-3.27.78-4.887,1.247a16.4,16.4,0,0,1-5.211.862c-2.2-.293-3.245,1.9-.78,3.373l.077.046a9.513,9.513,0,0,0,6.207,1.253l3.809-.513s28.847-7.259,36.7-11.839c0,0,3.594-2.305,3.686-4.62s.318-4.107-2.531-2.567S910.587,662.4,910.587,662.4Z" transform="translate(-438.516 -343.218)"/><path class="d" d="M911.443,661.55A215.425,215.425,0,0,1,879.516,671.6c-1.643.359-3.275.78-4.893,1.248a16.381,16.381,0,0,1-5.211.862c-2.2-.293-3.245,1.894-.775,3.373h0A9.755,9.755,0,0,0,875,678.369l3.707-.513h0c.6-.149,28.9-7.3,36.686-11.808h0c.123-.082,3.594-2.346,3.681-4.62s.318-4.133-2.531-2.567-5.005,2.649-5.134,2.711Z" transform="translate(-438.935 -342.815)"/><ellipse class="h" cx="5.814" cy="4.302" rx="5.814" ry="4.302" transform="translate(400.825 343.096) rotate(-87.138)"/><ellipse class="j" cx="5.806" cy="4.297" rx="5.806" ry="4.297" transform="translate(400.711 343.064) rotate(-87.15)"/><path class="h" d="M838.261,709.582s-22.512,3.429-28.482,3.763-6.869,3.645-6.869,3.645-1.437,8.4,6.854,5.971l29.406-3.316s3.984.113,3.984-5.308v-1.217a12.236,12.236,0,0,1,.205-2.028C843.518,710.244,843.081,708.868,838.261,709.582Z" transform="translate(-407.599 -367.682)"/><path class="j" d="M839.135,708.722s-22.512,3.429-28.482,3.758-6.854,3.65-6.854,3.65-1.437,8.4,6.854,5.971l29.411-3.316s3.979.113,3.979-5.308v-1.217a12.23,12.23,0,0,1,.205-2.028C844.413,709.384,843.956,708.008,839.135,708.722Z" transform="translate(-408.032 -367.264)"/><path class="j" d="M978.036,674.921a5.525,5.525,0,0,0-1.4,2.623h0l-7.29,5.165a.6.6,0,0,1-.94-.483V676.8a4.5,4.5,0,0,1,2.182-3.861l7.588-4.574C978.57,669.823,979.494,673.827,978.036,674.921Z" transform="translate(-488.181 -347.724)"/><path class="d" d="M886.328,694.981l-.339,5.483a3.661,3.661,0,0,0,4.158,3.912,100.725,100.725,0,0,0,35.187-12.639l.96-11.2a1.576,1.576,0,0,0-2.192-1.607c-6.161,2.747-22.676,9.785-33.159,11.13A5.324,5.324,0,0,0,886.328,694.981Z" transform="translate(-448.068 -352.799)"/><path class="b" d="M893.26,694.971v8.912s27.419-6.479,33.5-10.848V684.58a137.734,137.734,0,0,1-33.5,10.391Z" transform="translate(-451.612 -355.613)"/><path class="b" d="M984.515,655.557c-1.391-.1-2.505-2.485-2.505-5.406s1.16-5.411,2.567-5.411a1.632,1.632,0,0,1,1.176.58A44.127,44.127,0,0,1,984.515,655.557Z" transform="translate(-494.799 -336.226)"/><path class="j" d="M985.38,654.687c-1.391-.092-2.5-2.48-2.5-5.4s1.155-5.416,2.567-5.416a1.658,1.658,0,0,1,1.181.585A44.525,44.525,0,0,1,985.38,654.687Z" transform="translate(-495.223 -335.802)"/><path class="d" d="M668.644,691.522c0,48.591-20.535,49.644-47.318,49.644-21.4,0-30.156-22.224-30.156-49.644s6.874-49.582,28.267-49.582S668.644,664.108,668.644,691.522Z" transform="translate(-304.608 -334.863)"/><path class="c" d="M668.644,691.522c0,48.591-20.535,49.644-47.318,49.644-21.4,0-30.156-22.224-30.156-49.644s6.874-49.582,28.267-49.582S668.644,664.108,668.644,691.522Z" transform="translate(-304.608 -334.863)"/><ellipse class="d" cx="26.993" cy="49.644" rx="26.993" ry="49.644" transform="translate(286.562 307.015)"/><path class="j" d="M162.047,654.444c0,14.888-4.312,26.829-13.271,26.829s-19.606-12.08-19.606-26.978,3.722-28,12.68-28S162.047,639.545,162.047,654.444Z" transform="translate(-79.788 -327.247)"/><path class="d" d="M168.072,658.194q0,1.694-.092,3.327A42.1,42.1,0,0,1,166.727,670c-1.453,5.483-4.107,9.292-7.978,10.016a7.544,7.544,0,0,1-1.381.123,10.847,10.847,0,0,1-5.729-1.858,22.669,22.669,0,0,1-8.825-12.229,26,26,0,0,1-1.186-6.217c-.041-.575-.062-1.16-.062-1.746a54.736,54.736,0,0,1,1.206-12.07,22.22,22.22,0,0,1,2.608-6.859c1.581-2.49,3.681-3.973,6.371-3.973a10.545,10.545,0,0,1,5.611,1.894,21.866,21.866,0,0,1,6.161,6.371,27.266,27.266,0,0,1,4.549,14.739Z" transform="translate(-85.819 -331.578)"/><path class="j" d="M168.007,663.332a42.1,42.1,0,0,1-1.242,8.46c-.185-.211-5.257-6.073-9.066-2.31-2.8,2.757-.441,9.035,1.088,12.321a7.555,7.555,0,0,1-1.381.123,10.849,10.849,0,0,1-5.729-1.858v-.421s2.254-7.023-3.758-11.351c0,0-2.921-1.16-5.093-.462a26,26,0,0,1-1.186-6.217c.513-.406,4.03-3.419,2.593-9.1a41.347,41.347,0,0,0-1.448-4.718,22.219,22.219,0,0,1,2.634-6.849s1.155,6.268,5.575,6.643,6.35-8.481,6.407-8.727a21.865,21.865,0,0,1,6.161,6.371s-7.059,2.937-5,10.75C160.07,661.525,165.183,662.968,168.007,663.332Z" transform="translate(-85.856 -333.369)"/><ellipse class="d" cx="3.316" cy="5.75" rx="3.316" ry="5.75" transform="translate(63.06 320.154) rotate(-8.049)"/><path class="j" d="M625.431,710.569c0,17.85-3.8,32.148-11.705,32.148s-17.3-14.472-17.3-32.343,3.286-33.554,11.186-33.554S625.431,692.719,625.431,710.569Z" transform="translate(-307.167 -351.836)"/><path class="d" d="M630.746,715.109q0,2.054-.082,3.989a67.682,67.682,0,0,1-1.109,10.144c-1.278,6.571-3.594,11.13-7.039,12a5.263,5.263,0,0,1-1.217.144,7.949,7.949,0,0,1-5.052-2.228c-3.275-2.818-6.263-8.106-7.809-14.657a41.616,41.616,0,0,1-1.027-7.449c-.036-.688-.057-1.386-.057-2.095a87.852,87.852,0,0,1,1.068-14.457,32.6,32.6,0,0,1,2.341-8.214c1.4-2.983,3.25-4.759,5.621-4.759a7.8,7.8,0,0,1,4.949,2.269,24.376,24.376,0,0,1,5.452,7.634,41.381,41.381,0,0,1,3.958,17.676Z" transform="translate(-312.483 -357.048)"/><path class="j" d="M630.721,721.224a67.682,67.682,0,0,1-1.109,10.144c-.159-.257-4.62-7.28-8-2.772-2.464,3.306-.39,10.827.96,14.775a5.27,5.27,0,0,1-1.217.144,7.95,7.95,0,0,1-5.052-2.228v-.513s1.987-8.414-3.316-13.6c0,0-2.567-1.391-4.492-.555a41.613,41.613,0,0,1-1.027-7.449c.452-.488,3.553-4.107,2.284-10.9-.483-2.567-.914-4.4-1.273-5.647a32.6,32.6,0,0,1,2.341-8.214s1.027,7.516,4.918,7.957,5.6-10.155,5.647-10.447a24.374,24.374,0,0,1,5.452,7.634s-6.227,3.522-4.41,12.881C623.708,719.093,628.221,720.8,630.721,721.224Z" transform="translate(-312.54 -359.184)"/><ellipse class="d" cx="2.937" cy="6.864" rx="2.937" ry="6.864" transform="translate(300.141 350.725) rotate(-4.68)"/><path d="M552.57,547.89" transform="translate(-285.824 -289.096)"/><path class="c" d="M663.97,569.875l-.18.406c-.175-.082-15.463-6.674-72.155-16.295q-3.973-.673-8.214-1.371c-.262-.036-.513-.082-.786-.123-9.071-1.479-19.087-3.014-30.135-4.62l.062-.442c14.965,2.156,28.03,4.21,39.427,6.161C648.538,563.2,663.79,569.8,663.97,569.875Z" transform="translate(-285.79 -288.872)"/><path class="h" d="M209.86,411.618s5.134-8.727,22.7-9.5c0,0,128.4-16.772,209.458.657,0,0,6.92,3.08-.59,4.887S261.306,415.715,209.86,411.618Z" transform="translate(-119.054 -214.624)"/><path class="l" d="M209.86,409.9s5.134-8.727,22.7-9.508c0,0,128.4-16.767,209.458.662,0,0,6.92,3.08-.59,4.887S261.306,413.993,209.86,409.9Z" transform="translate(-119.054 -213.786)"/><path class="h" d="M185.684,466.338c7.973-18.769,17.542-27.645,20.571-30.125a3.429,3.429,0,0,1,2.1-.77l42-.78a3.4,3.4,0,0,1,2.89,1.489,3.435,3.435,0,0,0-3.332-2.372l-42,.78a3.389,3.389,0,0,0-2.1.77c-3.029,2.474-12.6,11.351-20.571,30.12a4.523,4.523,0,0,0,.365,4.251A4.518,4.518,0,0,1,185.684,466.338Z" transform="translate(-106.896 -233.567)"/><path class="h" d="M332.6,467.688l5.724-26.013a9.932,9.932,0,0,1,9.405-8.086l54.1-.513a8.727,8.727,0,0,1,5.647,2.023,8.825,8.825,0,0,0-6.51-2.849l-54.1.513a9.942,9.942,0,0,0-9.405,8.091l-5.75,26.008a11.808,11.808,0,0,0,3.809,11.6A11.9,11.9,0,0,1,332.6,467.688Z" transform="translate(-178.204 -232.823)"/><path class="h" d="M540.456,473.1,521.307,433.4a3.727,3.727,0,0,1,3.286-5.344c14.585-.267,52.919-1.36,72.674-5.7-1.242-.97-1.956-1.509-1.956-1.509-19.508,4.492-58.694,5.611-73.485,5.878a3.727,3.727,0,0,0-3.286,5.344l19.154,39.679a13.666,13.666,0,0,0,7.834,6.982A13.64,13.64,0,0,1,540.456,473.1Z" transform="translate(-269.084 -227.276)"/><rect class="b" width="8.255" height="2.541" transform="translate(269.179 353.065)"/><rect class="c" width="8.255" height="2.541" transform="translate(269.179 353.065)"/><path class="b" d="M235.539,682.53l-10.149,1.751a5.26,5.26,0,0,0,.293,1.027c.2.513,11.294-.4,11.294-.4l-1.068-.221Z" transform="translate(-126.611 -354.615)"/><path class="c" d="M235.539,682.53l-10.149,1.751a5.26,5.26,0,0,0,.293,1.027c.2.513,11.294-.4,11.294-.4l-1.068-.221Z" transform="translate(-126.611 -354.615)"/><path class="h" d="M150.424,682.236c-8.953,0-19.606-12.08-19.606-26.978,0-10.211,1.751-19.585,5.734-24.468-5.134,4.143-7.382,14.59-7.382,26.115,0,14.888,10.653,26.978,19.606,26.978a9.5,9.5,0,0,0,7.5-3.748A9.04,9.04,0,0,1,150.424,682.236Z" transform="translate(-79.788 -329.437)"/><path class="h" d="M615.5,742.765c-8.019,0-17.557-14.5-17.557-32.394,0-12.265,1.54-23.518,5.134-29.381-4.62,4.975-6.607,17.522-6.607,31.362,0,17.891,9.539,32.394,17.557,32.394,2.711,0,4.944-1.643,6.715-4.5A6.99,6.99,0,0,1,615.5,742.765Z" transform="translate(-307.187 -353.866)"/><ellipse class="h" cx="13.214" cy="25.797" rx="13.214" ry="25.797" transform="translate(357.846 292.261) rotate(-45)"/><ellipse class="i" cx="13.214" cy="25.797" rx="13.214" ry="25.797" transform="translate(358.288 291.822) rotate(-45)"/><ellipse class="h" cx="9.687" cy="21.89" rx="9.687" ry="21.89" transform="translate(364.811 291.707) rotate(-45)"/><ellipse class="j" cx="9.687" cy="21.89" rx="9.687" ry="21.89" transform="translate(364.812 291.261) rotate(-45)"/><path class="b" d="M1067.12,795.1s-21.706-1.309-19.149,13.9a3.7,3.7,0,0,0,1.93,3.907s.036-1.124,2.228-.744a9.907,9.907,0,0,0,2.356.113,4.876,4.876,0,0,0,2.88-1.191h0s6.1-2.521,8.476-12.49c0,0,1.756-2.177,1.684-2.736l-3.66,1.54s1.253,2.644.267,4.841c0,0-.118-4.744-.821-4.62-.144,0-1.9.914-1.9.914s2.156,4.62.513,7.947c0,0,.616-5.647-1.2-7.613l-2.567,1.5s2.516,4.754.811,8.635c0,0,.436-5.95-1.355-8.27l-2.336,1.822s2.367,4.687.924,7.906c0,0-.19-6.925-1.432-7.449a13.78,13.78,0,0,0-2.351,2.541s1.617,3.4.611,5.2c0,0-.616-4.62-1.119-4.62,0,0-2.053,3.08-2.249,5.134a11.117,11.117,0,0,1,1.756-5.447,6.114,6.114,0,0,0-3.116,1.617s.313-2.161,3.594-2.351a14.225,14.225,0,0,1,2.131-2.459,13.368,13.368,0,0,0-5.278.606s1.756-2.054,5.883-1.114l2.305-1.879s-4.328-.6-6.161.062c0,0,2.11-1.807,6.782-.513l2.51-1.5a22.858,22.858,0,0,0-5.883-.513s2.315-1.253,6.623.1l1.792-.806s-2.7-.513-3.491-.611-.837-.3-.837-.3a9.375,9.375,0,0,1,5.077.565S1067.182,795.345,1067.12,795.1Z" transform="translate(-526.796 -409.382)"/><ellipse class="a" cx="15.36" cy="2.598" rx="15.36" ry="2.598" transform="translate(510.015 402.257)"/><ellipse class="a" cx="8.661" cy="1.463" rx="8.661" ry="1.463" transform="translate(564.869 354.97)"/><path class="b" d="M1013.39,731.542s-14.775-.888-13.035,9.462a2.531,2.531,0,0,0,1.314,2.664s.026-.77,1.54-.513a6.744,6.744,0,0,0,1.607.077,3.346,3.346,0,0,0,1.961-.811h0s4.153-1.715,5.77-8.5c0,0,1.191-1.484,1.145-1.864l-2.49,1.063a4.5,4.5,0,0,1,.18,3.3s-.082-3.229-.56-3.152c-.1,0-1.294.621-1.294.621s1.463,3.137.359,5.411c0,0,.416-3.861-.821-5.18l-1.751,1.027s1.71,3.239.549,5.878c0,0,.3-4.051-.919-5.647l-1.592,1.237s1.607,3.193.626,5.38c0,0-.128-4.713-.97-5.072a9.731,9.731,0,0,0-1.607,1.735s1.1,2.315.421,3.537c0,0-.421-3.142-.765-3.157a10.307,10.307,0,0,0-1.54,3.506,7.582,7.582,0,0,1,1.2-3.707,4.2,4.2,0,0,0-2.125,1.1s.216-1.468,2.464-1.6a9.894,9.894,0,0,1,1.453-1.679,9.146,9.146,0,0,0-3.594.416s1.2-1.386,4-.755l1.571-1.283a12.913,12.913,0,0,0-4.194.041s1.438-1.227,4.62-.334l1.71-1.027a15.523,15.523,0,0,0-4-.344s1.576-.852,4.507.072l1.222-.549s-1.838-.365-2.377-.421-.57-.205-.57-.205a6.381,6.381,0,0,1,3.455.385A14.561,14.561,0,0,0,1013.39,731.542Z" transform="translate(-503.657 -378.456)"/><ellipse class="a" cx="10.458" cy="1.766" rx="10.458" ry="1.766" transform="translate(489.1 364.344)"/><ellipse class="a" cx="15.36" cy="2.598" rx="15.36" ry="2.598" transform="translate(0 379.556)"/><path class="m" d="M42.81,760.189s8.758-.267,11.4-2.151,13.476-4.107,14.133-1.109,13.168,15,3.275,15.078S48.637,770.466,46,768.86,42.81,760.189,42.81,760.189Z" transform="translate(-37.763 -390.105)"/><path class="c" d="M71.79,775.431c-9.893.077-22.984-1.54-25.618-3.147-2.007-1.222-2.808-5.611-3.08-7.634H42.8s.554,7.069,3.188,8.671,15.73,3.229,25.623,3.147c2.854,0,3.84-1.027,3.789-2.567C75,774.846,73.916,775.41,71.79,775.431Z" transform="translate(-37.759 -394.576)"/><path class="n" d="M590.94,442.8c1.468-3.943-1.15-8.1-1.15-8.1l-.211-9.025c1.155-2.387-2.824-8.3-2.824-8.3s-.945-4.466-1.781-4.877-1.776-2.285-1.776-2.285a1.381,1.381,0,0,0-.8-1.222,59.327,59.327,0,0,1-3.819-8.389,9.4,9.4,0,0,1-.77-4.985,8.86,8.86,0,0,1,.375-1.242c.036-.087.067-.169.1-.257s0-.072.041-.1l.036-.092a6.437,6.437,0,0,0,.616-2.664c-.118-1.925-1.889-3.332-3.65-4.148s-3.737-1.345-5.134-2.706c-1.735-1.7-2.136-4.282-2.567-6.674s-1.027-4.975-2.988-6.412c-1.735-1.273-4.107-1.3-6.227-.939a20.745,20.745,0,0,0-8.029,3.2c-2.336,1.571-4.42,3.65-7.121,4.466-.991.3-2.054.416-3.019.739a7.449,7.449,0,0,0-4.492,4.5h0c-.036.1-.062.2-.1.293s-.082.241-.118.365-.051.21-.072.313-.062.241-.082.365-.036.21-.046.313-.036.252-.046.375a3.061,3.061,0,0,0,0,.308V386a16.452,16.452,0,0,0-2.875,3.594c-3.45,5.473-7.747,13.384-9.657,16.941l-.092.175v-.108s-8.424,8.455-3.506,7.316a10.061,10.061,0,0,1,1.027-.185l-.087.965v.026c-.785.986-4.189,4.395,2.141,6.92,5.252,2.095,15.987,2.628,19.508,2.752l-.308,1.484c-5.442,4.461-3.347,9.549-3.45,12.87s-.631,7.264-.631,7.264-2.305,3.737-1.987,5.709-1.674,5.19-1.674,5.19-2.931,3.214-2.618,5.293a13.036,13.036,0,0,1-.513,4.769s-1.987,3.635-1.15,5.709a4.87,4.87,0,0,1,.421,3.219s-4.292.621-4.62,2.906-4.184,3.111-4.184,3.111-6.9,2.49-8.584,3.635S501.879,495,501.879,495s-8.928,9.184-9.4,10.108-5.729,4.9-3.3,8.64c.123.185.246.375.375.56a31.794,31.794,0,0,0,9.657,9.154,14.775,14.775,0,0,1,3.861,2.972c1.1,1.715,19.467,13.466,19.467,13.466s8.07,7.095,13.266,12.039l.4,2.377c-.067.1-.133.21-.2.334a1.443,1.443,0,0,0,.513,1.407l.072.421s2.095,17.645,3.979,25.895a21.456,21.456,0,0,1-.38,11.736,10.478,10.478,0,0,1-2.182-2.942,22.218,22.218,0,0,0-1.335,4.348c-.031.221-.051.426-.062.621a.159.159,0,0,0-.139.062l-.734,1.027c-.8,1.1-1.5,2.279-2.218,3.44-1.648,2.675-6.818,3.922-6.818,3.922a5.077,5.077,0,0,1-1.386.513,15.915,15.915,0,0,1-4.395.133,7.192,7.192,0,0,0-1.3.318,5.027,5.027,0,0,0-.986.452h0a3.768,3.768,0,0,0-1.432,4.148h0l.057.036.056.036.092.056.139.087.118.067.123.077.128.072.159.087.134.077.339.18.159.087.221.113.18.087.241.118.236.108c.133.067.272.128.416.19l.241.108.277.113.267.108.277.108.513.19.257.087.365.123.277.087.421.123.231.062c.21.062.426.113.647.164l.216.046c.169.041.339.077.513.108l.128.031h.108c.185.036.37.062.56.092h.164l.739.087h.169c.2,0,.39.031.59.041H528q.385,0,.77-.031h.159l.631-.062.277-.041.554-.092.262-.051c.267-.056.513-.118.806-.19a50.1,50.1,0,0,1,17.968-1.54c4.62.39,5.781-1.191,5.781-1.191a2.743,2.743,0,0,0,.231-.4,1.483,1.483,0,0,0,.067-.159,2.75,2.75,0,0,0,.108-.288.978.978,0,0,1,.057-.2c.015-.067.046-.2.067-.3s0-.144.036-.216,0-.082,0-.123a2.893,2.893,0,0,0,.026-.3,11.419,11.419,0,0,0-.185-2.659,30.529,30.529,0,0,0-1.684-5.647l-.329.226q-.056-.252-.108-.513c-1.129-6.083-1.54-20.679-1.54-22.224h0a2.767,2.767,0,0,0,1.756-.606c.087-.072.133-.118.133-.118,3.922-3.188,2-17.747.7-19.77s-1.54-12.413-2-15.72c-.221-1.571-1.027-2.028-2.12-2.053a4.526,4.526,0,0,0-.457,0c-.154-3.08.3-10.324.647-15.268h0c0-.318.046-.631.067-.929l.991.051,1.463-8.727s.842-3.183,5.976-12.316a48.851,48.851,0,0,0,5.647-19.092s1.571-3.008,1.15-4.359c-.108-.349-.277-1.335-.477-2.613a34.2,34.2,0,0,1,5.488-2.68c5.488-2.218,9.605-6.371,11.515-8.43l.3-.329a23.113,23.113,0,0,1,1.294,2.223,43.88,43.88,0,0,0,6.8-5.817,3.563,3.563,0,0,0,.58-1.027c1.386-3.45-.031-10.827-.031-10.827A5.782,5.782,0,0,0,590.94,442.8Z" transform="translate(-254.667 -202.62)"/><g class="o" transform="translate(309.738 236.775)"><path class="p" d="M640.193,529.4a14.915,14.915,0,0,1-3.558,2.285c-.169-1.34-.293-2.351-.318-2.664-.108-1.145,2.336-6.273,2.336-6.273s4.677-6.273,4.569-7.218,1.807-3.655,1.807-3.655l4.24-6.874a3.08,3.08,0,0,0,.436,3.219c1.278,1.674.21,5.021.21,5.021l.262,4.22v.421c-.149.149-.832.8-2.341,2.161-1.391,1.253-1.145,1.638-.986,1.74-.318.565.072.662.072.662a2.242,2.242,0,0,0,.37-.031l-.339.313A91.711,91.711,0,0,0,640.193,529.4Z" transform="translate(-636.313 -505)"/></g><path class="q" d="M578.175,399.125c-1.268,1.325.175,3.183-.811,4.62-.56.806-1.792,1.314-2.49,2.054-1.36,1.479-.334,3.368.323,5.052,2.4,6.13-1.2,13.117-8.727,16.941a15.766,15.766,0,0,0,10.345.847c3.368-.9,5.96-3,6.638-5.38.513-1.689.072-3.486.939-5.1,1.35-2.521,5.483-4.035,6.7-6.582.955-2-.087-4.153-1.3-6.084a48.288,48.288,0,0,0-5.2-6.787c-1.181-1.289-1.181-1.8-3.08-1.453a9.091,9.091,0,0,0-3.337,1.874Z" transform="translate(-292.588 -215.741)"/><path class="q" d="M602.464,431.435a19.732,19.732,0,0,1-1.206,5.319,27.6,27.6,0,0,1-2.7,6.314,9.391,9.391,0,0,1-5.272,4.184,6.6,6.6,0,0,0,5.493,1.586c1.412-.252,2.839-.965,4.2-.513a13.387,13.387,0,0,1,1.812.97,5.163,5.163,0,0,0,6.078-1.463,6.9,6.9,0,0,0,1.063-6.386c-.411-1.3-1.145-2.485-1.54-3.8-.56-1.941-.339-4.107-1.278-5.894-1.366-2.567-5.134-4.107-7.732-5.134C601.263,428.016,602.526,429.793,602.464,431.435Z" transform="translate(-305.639 -230.084)"/><path class="h" d="M595.539,422.086a19.74,19.74,0,0,1-1.206,5.3,26.963,26.963,0,0,1-2.7,6.315,9.419,9.419,0,0,1-5.267,4.184,6.571,6.571,0,0,0,5.488,1.586c1.412-.246,2.839-.965,4.2-.513a12.8,12.8,0,0,1,1.812.965,5.163,5.163,0,0,0,6.078-1.463,6.89,6.89,0,0,0,1.063-6.386c-.411-1.3-1.145-2.485-1.54-3.8-.56-1.941-.339-4.107-1.278-5.894-1.366-2.567-5.159-4.107-7.731-5.134C594.338,418.662,595.6,420.418,595.539,422.086Z" transform="translate(-302.272 -225.524)"/><path class="r" d="M587.812,643.049s-1.54,18.831-.878,21.351,1.807,36.583,1.807,36.583.462,19.857,2.007,24.026-10.447,2.983-10.858,2.931-3.393-8.491-3.393-8.491,2.931-5.134,1.078-13.348-3.907-25.669-3.907-25.669l-3.409-20.561s.462-4.836-1.335-7.562-4.107-20.576-3.594-22.121,12.742-4.939,12.742-4.939l5.267,6.895Z" transform="translate(-291.999 -326.741)"/><path class="s" d="M565.549,634.141v.365c.036.339.072.7.113,1.068.642,5.96,2.115,14.888,3.342,16.751s1.4,4.718,1.386,6.33v.513a5.4,5.4,0,0,1-.041.729l2.613,15.827.113.673.673,4.081s2.053,17.5,3.912,25.669a21.669,21.669,0,0,1-.236,11.2c-.051.169-.1.334-.154.483a10.464,10.464,0,0,1-.693,1.638s.421,1.191.97,2.685l.38,1.027c.072.185.139.365.205.549a21.68,21.68,0,0,0,1.843,4.225c.406.051,12.4,1.232,10.853-2.931a12.329,12.329,0,0,1-.462-1.858c-1.176-6.371-1.54-22.168-1.54-22.168s-1.13-34.057-1.8-36.583c-.442-1.679.092-10.581.513-16.346h0c.2-2.89.375-4.99.375-4.99l-4.477-10.9-5.267-6.895s-8.779,2.439-11.772,4.107l-.087.046a2.023,2.023,0,0,0-.883.77A17.534,17.534,0,0,0,565.549,634.141Z" transform="translate(-292.047 -326.756)"/><path class="t" d="M581.23,688.89s5.811,1.54,5.3,3.239Z" transform="translate(-299.771 -357.71)"/><path class="h" d="M587.25,806.74s.631,1.781,1.35,3.717c.821.39,1.448.631,1.448.631s2.238-2.079-.719-5.134c-.477-.513-.883-.929-1.232-1.325a11.355,11.355,0,0,1-.847,2.11Z" transform="translate(-302.7 -414.032)"/><path class="u" d="M581.687,805.386c.226,1.232,2.931,2.6,4.395,3.26.554.246.934.4.934.4a2.828,2.828,0,0,0,.621-.986c.339-.9.4-2.362-1.34-4.164-.411-.421-.765-.8-1.078-1.15a10.62,10.62,0,0,1-2.192-2.962,22.376,22.376,0,0,0-1.3,4.312A4.137,4.137,0,0,0,581.687,805.386Z" transform="translate(-299.976 -411.672)"/><path class="h" d="M581.687,809.474c.226,1.232,2.931,2.6,4.395,3.26a21.683,21.683,0,0,0,1.843,4.225c.406.051,12.4,1.232,10.853-2.931a12.323,12.323,0,0,1-.462-1.858l-3.327,2.346c-1.694,1.206-4.24.308-4.24.308l-3.111-2.68-.775-.662a4.617,4.617,0,0,1-1.366-.328,6.6,6.6,0,0,1-2.675-2.146c-.59-.626-.924-.8-1.1-.827A4.139,4.139,0,0,0,581.687,809.474Z" transform="translate(-299.976 -415.759)"/><path class="u" d="M544.364,823.247a21.244,21.244,0,0,0,7.357,2.947,14.887,14.887,0,0,0,6.715-.19,48.875,48.875,0,0,1,17.645-1.54c4.528.385,5.683-1.181,5.683-1.181.755-1.027.729-2.813.426-4.62a30.611,30.611,0,0,0-1.633-5.6s-2.054,1.443-3.758,2.649-4.241.313-4.241.313l-3.886-3.347a6.057,6.057,0,0,1-4.04-2.469c-1.083-1.16-1.3-.775-1.3-.775l-.739,1c-.791,1.1-1.484,2.259-2.187,3.414-1.617,2.649-6.674,3.891-6.674,3.891a5.385,5.385,0,0,1-1.36.483,15.53,15.53,0,0,1-4.328.128,5.745,5.745,0,0,0-2.166.739A3.723,3.723,0,0,0,544.364,823.247Z" transform="translate(-281.761 -416.339)"/><circle class="v" cx="0.4" cy="0.4" r="0.4" transform="translate(285.669 398.124)"/><circle class="v" cx="0.4" cy="0.4" r="0.4" transform="translate(280.741 400.224)"/><circle class="v" cx="0.4" cy="0.4" r="0.4" transform="translate(282.686 403.212)"/><circle class="v" cx="0.4" cy="0.4" r="0.4" transform="translate(275.905 402.201)"/><circle class="v" cx="0.4" cy="0.4" r="0.4" transform="translate(283.487 399.423)"/><circle class="v" cx="0.4" cy="0.4" r="0.4" transform="translate(285.412 403.002)"/><circle class="v" cx="0.4" cy="0.4" r="0.4" transform="translate(278.353 401.395)"/><circle class="v" cx="0.4" cy="0.4" r="0.4" transform="translate(273.256 402.812)"/><path class="h" d="M544.364,832.084s6.895,4.738,14.072,2.757a48.874,48.874,0,0,1,17.645-1.54c4.528.385,5.683-1.181,5.683-1.181a3.5,3.5,0,0,0,.58-1.669,1.381,1.381,0,0,1,.031-.354,12,12,0,0,0-.185-2.567c-.945.7-2.9,1.54-6.854,1.689a122.207,122.207,0,0,0-15.874,1.966l-8.727-.359s-4.887-1.058-4.867-2.88A3.685,3.685,0,0,0,544.364,832.084Z" transform="translate(-281.761 -425.175)"/><path class="u" d="M568.34,836.206a2.051,2.051,0,0,0,.436.036,48.846,48.846,0,0,0,7.475-1.33,10.426,10.426,0,0,1,1.91-.272c2.054-.108,7.079-.349,9.913-.329h.067a14.965,14.965,0,0,0,5.94-1.437,1.379,1.379,0,0,1,.031-.354A14.709,14.709,0,0,1,588.074,834c-2.834,0-7.885.226-9.929.334a11.116,11.116,0,0,0-1.966.277c-1.966.462-6.674,1.515-7.783,1.294Z" transform="translate(-293.498 -427.603)"/><path class="w" d="M575.161,690.793a5.4,5.4,0,0,1-.041.729l2.613,15.827c.467.447.919.873,1.345,1.289a34.394,34.394,0,0,1,3.65,3.85c1.54,2.392,7,1.16,6.895.929s-2.341-11.5-2.341-11.5l-1.771-4.554a2.909,2.909,0,0,1-3.666-.77c-1.145-1.217-3.707-3.594-5.447-5.185l-1.227-1.119C575.171,690.475,575.166,690.655,575.161,690.793Z" transform="translate(-296.797 -358.391)"/><path class="t" d="M565.547,638.124v.318c.036.339.072.7.113,1.068.38-.139.755-.287,1.124-.452l.513-.236a27.031,27.031,0,0,0,4.78-2.957L567.6,633.94l-1.325-.57a2.023,2.023,0,0,0-.883.77A20.523,20.523,0,0,0,565.547,638.124Z" transform="translate(-292.04 -330.693)"/><path class="r" d="M490.284,632.4c.123.185.241.37.37.555a31.4,31.4,0,0,0,9.492,9.071,14.736,14.736,0,0,1,3.8,2.952c1.078,1.694,19.139,13.348,19.139,13.348s8.4,7.444,13.481,12.357l.647.626.313.308c.375.365.714.708,1.027,1.027.452.457.827.857,1.114,1.191.108.123.205.236.287.339a3.952,3.952,0,0,1,.267.359c1.54,2.392,7,1.155,6.895.924s-2.351-11.489-2.351-11.489l-1.776-4.554a2.767,2.767,0,0,1-2.331.154,3.592,3.592,0,0,1-1.33-.929c-1.145-1.212-3.712-3.594-5.452-5.18-1.027-.945-1.766-1.612-1.766-1.612l-5.791-6.556s-7.408-9.646-12.963-12.039a59.237,59.237,0,0,1,10.724-3.245,19.511,19.511,0,0,0,4.964-1.2l.513-.241a27.263,27.263,0,0,0,4.779-2.957l-4.461-1.92L506.342,613.57c-.144,0-1.509.092-2.51.159l-1.063.072s-8.774,9.107-9.241,10.036S487.891,628.679,490.284,632.4Z" transform="translate(-255.208 -321.058)"/><path class="w" d="M529.906,642s-10.108,1.237-12.116,3.322c0,0,8.876.616,9.241,1.776,0,0-5.072-3.434-6.484-2.567Z" transform="translate(-268.899 -334.892)"/><path class="t" d="M582.29,725.765l.313.308c.375.365.714.708,1.027,1.027.452.457.827.857,1.114,1.191l1.309-1.694a5.409,5.409,0,0,0-1.489-.9,2.567,2.567,0,0,0-2.264.072Z" transform="translate(-300.286 -375.508)"/><path class="u" d="M582.045,729.843a7.087,7.087,0,0,0,1.058.436l1.027-1.355,1.33-1.725a5.327,5.327,0,0,0-1.489-.9,2.567,2.567,0,0,0-2.264.067,3.291,3.291,0,0,0-1.206,1.33S580.109,728.853,582.045,729.843Z" transform="translate(-299.4 -375.803)"/><path class="t" d="M583.13,718.338l.21.21a7.1,7.1,0,0,0,1.058.437l1.027-1.355a3.963,3.963,0,0,1,.267.359c1.54,2.392,7,1.155,6.895.924s-2.336-11.489-2.336-11.489l-1.776-4.554a2.767,2.767,0,0,1-2.331.154,1.135,1.135,0,0,0,0,1.617,10.863,10.863,0,0,1,1.751,5.134c.693,1.91-1.412,4.251-2.623,5.236a3.777,3.777,0,0,1-.652.436,1.51,1.51,0,0,0-.59.657A12.44,12.44,0,0,0,583.13,718.338Z" transform="translate(-300.695 -364.513)"/><path class="u" d="M584.33,716.516l2.341,2.351a17.511,17.511,0,0,1,7.085,8.84,18.914,18.914,0,0,0,.837,2.053,9.19,9.19,0,0,1,.611,2.885c.056.6.082,1.191.1,1.7a2.772,2.772,0,0,0,.7,1.781l.031.031a2.767,2.767,0,0,0,3.784.323c.082-.067.128-.113.128-.113,3.856-3.162,1.966-17.6.693-19.606s-1.5-12.321-1.971-15.586c-.216-1.54-1.027-2.012-2.084-2.053a30.23,30.23,0,0,0-3.655.549h-.2c-2.4.19-6.992.9-5.385,3.121a10.781,10.781,0,0,1,1.751,5.134c.852,2.351-2.567,5.365-3.275,5.647S584.33,716.516,584.33,716.516Z" transform="translate(-301.279 -362.69)"/><circle class="v" cx="0.683" cy="0.683" r="0.683" transform="translate(285.751 351.689)"/><circle class="v" cx="0.683" cy="0.683" r="0.683" transform="translate(286.793 354.246)"/><circle class="v" cx="0.683" cy="0.683" r="0.683" transform="translate(289.997 358.363)"/><circle class="v" cx="0.683" cy="0.683" r="0.683" transform="translate(288.41 356.248)"/><circle class="v" cx="0.683" cy="0.683" r="0.683" transform="translate(291.326 360.802)"/><path class="h" d="M604.165,726.241s.57,6.7,0,9.831a2.777,2.777,0,0,0,3.814.354c.082-.067.128-.113.128-.113,3.855-3.162,1.966-17.6.693-19.606s-1.5-12.321-1.971-15.586c-.216-1.54-1.027-2.012-2.084-2.053a30.227,30.227,0,0,0-3.655.549c0,3.27.185,10.781,1.027,13.276C603.241,716.117,604.165,726.241,604.165,726.241Z" transform="translate(-309.435 -362.661)"/><path class="h" d="M609.324,712.623a61.27,61.27,0,0,1,1.7,13.178c-.077,2.721.236,8.024.411,10.647.082-.067.128-.113.128-.113,3.855-3.162,1.966-17.6.693-19.606s-1.5-12.321-1.971-15.586c-.216-1.54-1.027-2.012-2.084-2.053C608.344,702.427,608.754,710.62,609.324,712.623Z" transform="translate(-312.895 -362.674)"/><path class="u" d="M604.983,699.44c.144,2.634.575,9.657,1.283,11.664.883,2.516,1.817,14.549,1.858,15.063h-.308c0-.128-.975-12.511-1.843-14.986-.724-2.053-1.155-9.025-1.294-11.7Z" transform="translate(-311.182 -362.844)"/><path class="x" d="M574.643,446.86a59.262,59.262,0,0,0-7.819,1.935c-2.829,1.047-3.245,1.617-3.245,1.617l-2.931.462v-3.137s-10.5.775-11.561.349a.251.251,0,0,1-.067-.041c-.513-.513.308,4.066-.462,5.041s-4.107,4.353,2.11,6.859,20.32,2.762,20.32,2.762L575,454.787Z" transform="translate(-283.101 -239.933)"/><path class="r" d="M621.1,449.892,610,447.525a26.9,26.9,0,0,0,3.214-8.5,11.685,11.685,0,0,0-.744-7.141C609.276,425.4,621.1,422,621.1,422s4.328,6.674,8.214,10.057a6.358,6.358,0,0,0,3.594,1.879C637.055,433.941,621.1,449.892,621.1,449.892Z" transform="translate(-313.771 -227.835)"/><path class="h" d="M515.19,614.73s4.831,11.423,9.241,11.628c2.664.123,10.878,1.253,17,2.13l.549.077a27.276,27.276,0,0,0,4.78-2.957l-4.461-1.92L518.768,613.57c-.144,0-1.509.092-2.51.159Z" transform="translate(-267.634 -321.058)"/><path class="h" d="M574.241,630.379c4.2.606-1.135,4.836-1.135,4.836s2.053,1.54,4.425,7.187,3.5,5.247,3.5,5.247l6.576.359c.2-2.89.375-4.99.375-4.99l-4.477-10.9-5.267-6.895s-8.779,2.439-11.772,4.107l-.087.046a2.023,2.023,0,0,0-.883.77C565.365,630.575,574.051,628.336,574.241,630.379Z" transform="translate(-292.115 -326.727)"/><path class="h" d="M621.1,459.43,610,457.063a26.9,26.9,0,0,0,3.214-8.5l3.476,3.352a8.584,8.584,0,0,0,4.759-1.391,7.279,7.279,0,0,0,1.622-1.489c2.469-3.08,5.447-7.1,5.447-7.1s.349-.159.827-.334a6.358,6.358,0,0,0,3.594,1.879C637.055,443.479,621.1,459.43,621.1,459.43Z" transform="translate(-313.771 -237.373)"/><path class="x" d="M515.19,530.06s4.831,11.423,9.241,11.633,24.18,3.188,24.18,3.188,2.054,1.54,4.425,7.187,3.5,5.252,3.5,5.252l7.613.411,1.443-8.64s.821-3.193,5.863-12.249a48.908,48.908,0,0,0,5.555-18.928s1.54-2.988,1.135-4.323-1.751-11.941-1.853-13.071,2.264-6.161,2.264-6.161,4.528-6.161,4.425-7.1,1.751-3.594,1.751-3.594l4.107-6.771a3.08,3.08,0,0,0,.426,3.168c1.232,1.648.2,4.939.2,4.939l.252,4.153.057,1s-.616.616-2.3,2.161-.888,1.745-.888,1.745c5.252-.719,9.364,7.824,9.364,7.824a42.277,42.277,0,0,0,6.674-5.765,3.557,3.557,0,0,0,.57-.991c1.366-3.424-.031-10.74-.031-10.74a5.782,5.782,0,0,0-.436-6.073c1.443-3.907-1.129-8.024-1.129-8.024l-.205-8.953c1.129-2.362-2.783-8.214-2.783-8.214s-.924-4.425-1.751-4.836-1.745-2.264-1.745-2.264c.1-2.053-5.355-2.264-5.863-2.367a9.977,9.977,0,0,1-1.864-1.088,16.17,16.17,0,0,0-1.638-.97c-.929-.411-3.4.724-3.4.724s-2.978,4.009-5.452,7.1a7.152,7.152,0,0,1-1.617,1.489,8.584,8.584,0,0,1-4.744,1.376l-3.542-3.414-10.452.637-2.433,12.039c-5.354,4.42-3.3,9.467-3.4,12.757s-.616,7.187-.616,7.187-2.264,3.707-1.956,5.647-1.648,5.134-1.648,5.134-2.88,3.188-2.567,5.247a12.866,12.866,0,0,1-.513,4.733s-1.951,3.594-1.13,5.647a4.866,4.866,0,0,1,.411,3.193s-4.22.616-4.528,2.88-4.107,3.08-4.107,3.08-6.787,2.469-8.44,3.594S515.19,530.06,515.19,530.06Z" transform="translate(-267.634 -237.327)"/><path class="h" d="M675.287,516s-7.7.929-8.645,2.054,7.7,1.237,7.7,1.237Z" transform="translate(-341.299 -273.578)"/><path class="h" d="M661.3,526.51s5.647-2.007,5.811-1.391-5.811,4.015-5.811,4.015Z" transform="translate(-338.735 -277.958)"/><path class="h" d="M648.082,505.422c-.981,1.545-9.082,11.5-9.082,11.5l8.727-12.737Z" transform="translate(-327.883 -267.831)"/><path class="h" d="M647.6,500.793c-.616.821-7.151,11.525-7.151,11.525l6.587-12.039Z" transform="translate(-328.589 -265.928)"/><path class="h" d="M675.8,474.393s-2.521-3.553-4.99-1.289S675.8,474.393,675.8,474.393Z" transform="translate(-343.116 -252.337)"/><path class="h" d="M636.781,469.635s-6.433,0-9.569,1.443S629.989,466.755,636.781,469.635Z" transform="translate(-321.726 -250.617)"/><path class="h" d="M632.29,452.088h.95s2.213-.821,2.777-2.526,5.016-.149,5.016-.149.642.483.077-.308,1.956-3.291,3.08-4.939a1.383,1.383,0,0,0,.2-.416,15.423,15.423,0,0,0-1.638-.975c-.929-.411-3.4.724-3.4.724s-2.978,4.015-5.452,7.1A7.151,7.151,0,0,1,632.29,452.088Z" transform="translate(-324.618 -237.901)"/><path class="x" d="M632.29,450.878h.95s2.213-.821,2.777-2.526,5.016-.149,5.016-.149.642.483.077-.308,1.956-3.291,3.08-4.939a1.406,1.406,0,0,0,.2-.421,16.163,16.163,0,0,0-1.638-.97c-.929-.411-3.4.724-3.4.724s-2.978,4.009-5.452,7.1A7.152,7.152,0,0,1,632.29,450.878Z" transform="translate(-324.618 -237.313)"/><circle class="y" cx="0.683" cy="0.683" r="0.683" transform="translate(299.397 219.33)"/><circle class="y" cx="0.683" cy="0.683" r="0.683" transform="translate(287.661 235.296)"/><circle class="y" cx="0.683" cy="0.683" r="0.683" transform="translate(291.896 225.219)"/><circle class="y" cx="0.683" cy="0.683" r="0.683" transform="translate(285.767 245.677)"/><circle class="y" cx="0.683" cy="0.683" r="0.683" transform="translate(277.07 263.584)"/><circle class="y" cx="0.683" cy="0.683" r="0.683" transform="translate(276.387 272.758)"/><path class="r" d="M553.27,424.894l1.386,4.477,4.374-.308,3.907-4.169s.257-.75.657-1.864c.986-2.757,2.849-7.762,3.876-9.3,1.438-2.156,2.367-11.11,2.367-11.11s-1.581-3.594-6.094,3.594c-3.393,5.421-7.619,13.266-9.492,16.808C553.645,424.2,553.27,424.894,553.27,424.894Z" transform="translate(-286.165 -217.967)"/><path class="r" d="M591,554.852c0,1.1,4.62,1.612,6.8,1.8l1.119.077c-.513,1.16,2.213,10.011,2.213,10.011a5.136,5.136,0,0,0,.688-.087c3.594-.724,10.683-5.678,10.683-5.678s.154-1.7,7.485-4.677c5.4-2.2,9.436-6.32,11.32-8.363a12.6,12.6,0,0,1,1.155-1.212l-6.51-6.72s-1.052.975-2.439,2.285a85.943,85.943,0,0,0-6.566,6.581c-.565,1.027-10.75,6.007-10.75,6.007-2.264-1.956-7.151-2.367-7.151-2.367S591,553.409,591,554.852Z" transform="translate(-304.525 -285.257)"/><path class="h" d="M598.106,523.73c-.308.616-14.251,9.877-16.618,10.031s2.213-4.425,2.367-4.477S598.106,523.73,598.106,523.73Z" transform="translate(-299.566 -277.339)"/><path class="h" d="M467.513,810.028,467,809.91Z" transform="translate(-244.184 -416.601)"/><path class="z" d="M547.24,827.523a5.647,5.647,0,0,1,2.166-.739,15.4,15.4,0,0,0,4.328-.133,10.318,10.318,0,0,0-.318,3.8l-1.309-.051S547.219,829.34,547.24,827.523Z" transform="translate(-283.23 -424.747)"/><path class="h" d="M468.377,810.216l-.277-.056Z" transform="translate(-244.719 -416.723)"/><path class="h" d="M454.33,804.55Z" transform="translate(-238.018 -413.993)"/><path class="h" d="M454.35,804.56Z" transform="translate(-238.028 -413.998)"/><path class="h" d="M468.042,810.16h0Z" transform="translate(-244.661 -416.723)"/><path class="z" d="M605.51,764.244c.056.6.082,1.191.1,1.7a2.772,2.772,0,0,0,.7,1.781l.031.031a24.768,24.768,0,0,0,.226-3.66C606.46,764.259,606,764.275,605.51,764.244Z" transform="translate(-311.586 -394.309)"/><path class="h" d="M654.34,542.264c3.352-.21,6.212,3.27,7.767,5.647a12.593,12.593,0,0,1,1.155-1.212l-6.484-6.7S655.706,540.955,654.34,542.264Z" transform="translate(-335.348 -285.257)"/><path class="h" d="M654.095,537.632c5.252-.719,9.364,7.824,9.364,7.824a42.28,42.28,0,0,0,6.674-5.765,3.594,3.594,0,0,0,.57-1c-1.222-2.937-4.595-7.829-13.492-5.965l.056,1s-.616.616-2.3,2.156S654.095,537.632,654.095,537.632Z" transform="translate(-335.133 -281.518)"/><path class="x" d="M654.095,538.832c5.252-.719,9.364,7.824,9.364,7.824a42.283,42.283,0,0,0,6.674-5.765,3.558,3.558,0,0,0,.57-.991c-1.222-2.937-4.595-7.834-13.492-5.971l.056,1s-.616.616-2.3,2.161S654.095,538.832,654.095,538.832Z" transform="translate(-335.133 -282.102)"/><path class="g" d="M654.095,538.832c5.252-.719,9.364,7.824,9.364,7.824a42.283,42.283,0,0,0,6.674-5.765,3.558,3.558,0,0,0,.57-.991c-1.222-2.937-4.595-7.834-13.492-5.971l.056,1s-.616.616-2.3,2.161S654.095,538.832,654.095,538.832Z" transform="translate(-335.133 -282.102)"/><path class="h" d="M553.27,445.094l1.386,4.477,4.374-.308,3.907-4.169s.257-.75.657-1.864c-.555.313-4.333,2.408-6.623,2.521-1.823.092-2.495-1.612-2.721-2.521C553.645,444.4,553.27,445.094,553.27,445.094Z" transform="translate(-286.165 -238.166)"/><path class="h" d="M550.333,447.6l.287-.334c1.027-1.191,1.951-2.11,1.951-2.11a4.794,4.794,0,0,0,.888,2.213,2.249,2.249,0,0,0,1.941.862,12.32,12.32,0,0,0,3.84-1.135c1.54-.688,2.849-1.427,2.849-1.427v1.237l.026,1.232v2.829s1.078,7.511-8.9,3.5c0,0,.621-2.757-3.173-2.233Z" transform="translate(-284.593 -239.105)"/><path class="x" d="M559.794,443.873l.051,2.469v2.829s1.078,7.511-8.9,3.5c0,0,.724-3.193-4.107-2.053s3.455-7.259,3.455-7.259.349,3.2,2.829,3.08S559.794,443.873,559.794,443.873Z" transform="translate(-282.298 -238.23)"/><path class="g" d="M559.794,443.873l.051,2.469v2.829s1.078,7.511-8.9,3.5c0,0,.724-3.193-4.107-2.053s3.455-7.259,3.455-7.259.349,3.2,2.829,3.08S559.794,443.873,559.794,443.873Z" transform="translate(-282.298 -238.23)"/><path class="h" d="M603.325,585.361c-.1-.154-.513-12.449-2.11-12.757s-5.555,1.335-5.555,1.335l.719,9.826Z" transform="translate(-306.793 -301.104)"/><path class="h" d="M605.319,572.292c-.513,1.16,2.213,10.011,2.213,10.011a5.135,5.135,0,0,0,.688-.087c-.252-3.66-.786-9.985-1.925-10.2a5.462,5.462,0,0,0-2.095.2Z" transform="translate(-310.948 -300.823)"/><path class="x" d="M604.525,584.755c-.1-.154-.513-12.449-2.11-12.763s-5.555,1.34-5.555,1.34l.719,9.826Z" transform="translate(-307.377 -300.806)"/><path class="g" d="M604.525,584.755c-.1-.154-.513-12.449-2.11-12.763s-5.555,1.34-5.555,1.34l.719,9.826Z" transform="translate(-307.377 -300.806)"/><path class="q" d="M579.012,445.593a26.966,26.966,0,0,0,2.7-6.315,30.29,30.29,0,0,0,.924-3.2,12.737,12.737,0,0,0,8.727,5.421,25.51,25.51,0,0,1,1.027,2.454,6.879,6.879,0,0,1-1.052,6.381,5.171,5.171,0,0,1-6.078,1.463,12.534,12.534,0,0,0-1.812-.965c-1.365-.431-2.793.282-4.2.513a6.576,6.576,0,0,1-5.488-1.591A9.159,9.159,0,0,0,579.012,445.593Z" transform="translate(-296.131 -234.687)"/><circle class="h" cx="12.757" cy="12.757" r="12.757" transform="translate(284.391 182.244)"/><circle class="r" cx="12.757" cy="12.757" r="12.757" transform="translate(284.391 181.412)"/><path class="q" d="M586.483,394.163c-1.5-1.027-3.707-.21-5.288-1.119a3.948,3.948,0,0,1-1.591-2.089A7.549,7.549,0,0,1,584.1,381.5c.965-.323,1.992-.436,2.967-.734,2.654-.811,4.7-2.87,7-4.425a20.233,20.233,0,0,1,7.891-3.173c2.095-.359,4.415-.334,6.125.929,1.925,1.427,2.541,3.994,2.937,6.361s.8,4.923,2.495,6.612c1.36,1.345,3.3,1.874,5.036,2.685s3.476,2.2,3.594,4.107c.087,1.494-.852,2.849-1.145,4.318a9.391,9.391,0,0,0,.755,4.944,59.237,59.237,0,0,0,6.356,12.619,34.4,34.4,0,0,1-10.1,3.727,8.772,8.772,0,0,1-4.4.026,7.28,7.28,0,0,1-3.984-3.778,12.567,12.567,0,0,1-1.345-4.764c-.252-3.311.785-6.864-.683-9.841a3.4,3.4,0,0,0-1.289-1.484,10.085,10.085,0,0,0-2.146-.652,8.7,8.7,0,0,1-3.168-2.177l-3.4-3.162a9.568,9.568,0,0,0-2.644-1.946,6.562,6.562,0,0,0-5.647.632c-1.5.842-3.239,2.1-4.759,1.294" transform="translate(-298.776 -203.977)"/><g class="o" transform="translate(280.413 182.008)"><path d="M590.544,413.447l-.9-.257A2.161,2.161,0,0,0,590.544,413.447Z" transform="translate(-584.276 -405.556)"/><path d="M591.4,413.675l1.027.288a2.6,2.6,0,0,0-.58-.3A3.252,3.252,0,0,1,591.4,413.675Z" transform="translate(-585.133 -405.785)"/><path d="M618.408,430.144a8.89,8.89,0,0,1-4.4.026,7.29,7.29,0,0,1-3.984-3.784,12.568,12.568,0,0,1-1.345-4.764c-.252-3.311.785-6.859-.678-9.841a3.445,3.445,0,0,0-1.258-1.484,9.7,9.7,0,0,0-2.146-.647,8.824,8.824,0,0,1-3.168-2.177l-3.4-3.157a9.57,9.57,0,0,0-2.644-1.946,6.561,6.561,0,0,0-5.647.631,10.174,10.174,0,0,1-3.409,1.54,2.714,2.714,0,0,1,.58.3l-1.027-.288a2.161,2.161,0,0,1-.9-.257l.9.257a2.168,2.168,0,0,0,.447,0c-1.448-.554-3.316,0-4.708-.811a3.942,3.942,0,0,1-1.6-2.1,6.735,6.735,0,0,1-.344-3.327,7.12,7.12,0,0,0-.067,4.969,3.948,3.948,0,0,0,1.6,2.095c1.386.8,3.26.257,4.708.816a10.018,10.018,0,0,0,3.409-1.54,6.565,6.565,0,0,1,5.647-.631,9.568,9.568,0,0,1,2.644,1.946l3.4,3.162a8.7,8.7,0,0,0,3.168,2.177,10.086,10.086,0,0,1,2.146.652,3.4,3.4,0,0,1,1.253,1.484c1.468,2.978.431,6.53.683,9.841a12.568,12.568,0,0,0,1.345,4.764,7.281,7.281,0,0,0,3.984,3.778,8.752,8.752,0,0,0,4.4-.026A34.4,34.4,0,0,0,628.1,428.08c-.236-.354-.467-.714-.693-1.073a34.533,34.533,0,0,1-9,3.137Z" transform="translate(-579.192 -398.32)"/><path d="M662.065,414.62a15.086,15.086,0,0,0-.719,2.166c-.031.159-.051.323-.067.483A10.225,10.225,0,0,0,662.065,414.62Z" transform="translate(-619.138 -406.252)"/></g><path class="h" d="M591.493,458.393a5.176,5.176,0,0,1-6.078,1.458,12.8,12.8,0,0,0-1.812-.965c-1.366-.431-2.793.282-4.2.513a6.6,6.6,0,0,1-4.728-1.027,7.724,7.724,0,0,1-.76.252,6.587,6.587,0,0,0,5.488,1.586c1.412-.252,2.839-.965,4.2-.513a13.379,13.379,0,0,1,1.812.97,5.163,5.163,0,0,0,6.078-1.463,6.536,6.536,0,0,0,1.391-4.554A6.351,6.351,0,0,1,591.493,458.393Z" transform="translate(-296.209 -243.724)"/></g></svg>