<svg xmlns="http://www.w3.org/2000/svg" xmlns:xlink="http://www.w3.org/1999/xlink" width="438" height="368" viewBox="0 0 438 368"><defs><style>.a,.b,.d{fill:#ffcf39;}.a,.n,.o{opacity:0.2;}.b,.i{opacity:0.5;}.c{fill:url(#a);}.e{fill:url(#c);}.f{fill:url(#m);}.g,.o{fill:#fff;}.h{fill:url(#s);}.i,.k{fill:#263238;}.j{fill:url(#u);}.l{fill:#f8c198;}.m{fill:#ff9800;}</style><linearGradient id="a" x1="0.5" y1="1" x2="0.5" gradientUnits="objectBoundingBox"><stop offset="0" stop-color="gray" stop-opacity="0.251"/><stop offset="0.54" stop-color="gray" stop-opacity="0.122"/><stop offset="1" stop-color="gray" stop-opacity="0.102"/></linearGradient><linearGradient id="c" x1="0.5" y1="1" x2="0.5" gradientUnits="objectBoundingBox"><stop offset="0" stop-opacity="0.122"/><stop offset="0.55" stop-opacity="0.09"/><stop offset="1" stop-opacity="0.02"/></linearGradient><linearGradient id="m" x1="0" y1="0.5" x2="1" y2="0.5" xlink:href="#c"/><linearGradient id="s" x1="0" y1="0.5" x2="1" y2="0.5" xlink:href="#a"/><linearGradient id="u" xlink:href="#a"/></defs><rect class="a" width="370" height="368" transform="translate(34)"/><rect class="b" width="257.394" height="299.664" transform="translate(90.34 34.445)"/><rect class="c" width="137" height="264" transform="translate(301 53)"/><rect class="c" width="138" height="264" transform="translate(0 54)"/><rect class="d" width="129" height="254" transform="translate(305 57)"/><rect class="d" width="129" height="254" transform="translate(133 311) rotate(180)"/><rect class="e" width="86.428" height="15.875" transform="translate(25.576 80.054)"/><rect class="e" width="86.428" height="15.875" transform="translate(326.31 103.806)"/><rect class="e" width="86.428" height="15.875" transform="translate(326.31 127.558)"/><rect class="e" width="86.428" height="15.875" transform="translate(326.31 152.19)"/><rect class="e" width="86.428" height="15.875" transform="translate(326.31 175.943)"/><rect class="e" width="86.428" height="15.875" transform="translate(326.31 200.575)"/><rect class="e" width="86.428" height="15.875" transform="translate(326.31 224.327)"/><rect class="e" width="86.428" height="14.993" transform="translate(326.31 248.96)"/><rect class="e" width="86.428" height="15.875" transform="translate(326.31 272.711)"/><rect class="e" width="86.428" height="15.875" transform="translate(326.31 80.054)"/><rect class="f" width="86.428" height="15.875" transform="translate(25.576 104.686)"/><rect class="f" width="86.428" height="15.875" transform="translate(25.576 128.438)"/><rect class="f" width="86.428" height="15.875" transform="translate(25.576 152.19)"/><rect class="f" width="86.428" height="15.875" transform="translate(25.576 175.943)"/><rect class="f" width="86.428" height="15.875" transform="translate(25.576 200.575)"/><rect class="g" width="82.9" height="12.347" transform="translate(27.339 81.815)"/><rect class="g" width="82.77" height="12.113" transform="translate(27.506 105.724)"/><rect class="g" width="82.77" height="12.113" transform="translate(27.506 129.889)"/><rect class="g" width="82.77" height="12.113" transform="translate(27.506 154.055)"/><rect class="g" width="82.77" height="12.113" transform="translate(27.506 178.22)"/><rect class="g" width="82.77" height="12.113" transform="translate(27.506 202.385)"/><rect class="f" width="86.428" height="15.875" transform="translate(25.576 224.327)"/><rect class="g" width="82.77" height="12.113" transform="translate(27.506 226.551)"/><rect class="g" width="82.77" height="12.113" transform="translate(27.506 226.551)"/><rect class="g" width="82.77" height="12.113" transform="translate(27.506 250.716)"/><rect class="g" width="82.77" height="12.113" transform="translate(27.506 274.882)"/><rect class="g" width="82.9" height="11.465" transform="translate(328.073 81.816)"/><rect class="g" width="82.9" height="12.347" transform="translate(328.073 105.568)"/><rect class="g" width="82.9" height="11.465" transform="translate(328.073 130.202)"/><rect class="g" width="82.9" height="12.347" transform="translate(328.073 153.954)"/><rect class="g" width="82.9" height="11.465" transform="translate(328.073 178.587)"/><rect class="g" width="82.9" height="12.347" transform="translate(328.073 202.339)"/><rect class="g" width="82.9" height="11.465" transform="translate(328.073 226.973)"/><rect class="g" width="82.9" height="12.347" transform="translate(328.073 250.724)"/><rect class="g" width="82.9" height="12.347" transform="translate(328.073 274.477)"/><rect class="h" width="304" height="19" transform="translate(67 325)"/><rect class="d" width="300" height="16" transform="translate(69 326)"/><rect class="c" width="303" height="19" transform="translate(68 26)"/><rect class="d" width="300" height="15" transform="translate(69 26)"/><rect class="i" width="147" height="254" transform="translate(146 57)"/><path class="j" d="M583.031,411.818c3.533,4.734-1.756,10.326-1.756,10.326l.888.308c-1.307,1.448-6.47,7.984-26.375,37.549-25.487,37.852-59.832,47.3-59.832,47.3h0a42.393,42.393,0,0,0-14-7.222V496.5a41.89,41.89,0,0,0,27.91-26.991,42.94,42.94,0,0,0,4.613-19.4c0-24.225-20.072-43.878-44.827-43.878s-44.827,19.648-44.827,43.878a42.94,42.94,0,0,0,4.613,19.4,41.89,41.89,0,0,0,27.91,26.991v3.573a42.393,42.393,0,0,0-14,7.222h0S409,497.843,383.51,459.991c-19.905-29.565-25.068-36.106-26.375-37.549l.888-.308s-5.274-5.592-1.756-10.326-23.292-10.326-20.218,0,7.03,15.489,7.03,15.489S399.2,515.81,428.5,530.436a40.593,40.593,0,0,0-1.04,9.145v17.21h84.375v-17.21a40.589,40.589,0,0,0-1.04-9.145C540.066,515.8,596.214,427.3,596.214,427.3s3.957-5.163,7.03-15.489S579.513,407.084,583.031,411.818Z" transform="translate(-250.104 -244.386)"/><circle class="k" cx="42.929" cy="42.929" r="42.929" transform="translate(176.613 165.23)"/><circle class="l" cx="40.406" cy="40.406" r="40.406" transform="translate(179.136 174.472)"/><circle class="k" cx="5.052" cy="5.052" r="5.052" transform="translate(198.496 201.024)"/><circle class="k" cx="5.052" cy="5.052" r="5.052" transform="translate(231.327 201.024)"/><path class="g" d="M601.219,545.107c0,3.028-5.274,8-11.785,8s-11.785-4.971-11.785-8,5.274-2.947,11.785-2.947S601.219,542.079,601.219,545.107Z" transform="translate(-369.892 -311.751)"/><circle class="g" cx="1.686" cy="1.686" r="1.686" transform="translate(203.125 204.391)"/><circle class="g" cx="1.686" cy="1.686" r="1.686" transform="translate(236.374 204.391)"/><path class="k" d="M583.415,443.536a5.216,5.216,0,0,1-4.936-4.588,6.056,6.056,0,0,1,3.533-5.93,1.725,1.725,0,0,1,.742-.192c.848,0,1.267,1.009,1.539,1.812.848,2.483,2.352,4.906,4.714,6.056s5.663.56,6.909-1.751a6.693,6.693,0,0,1-2.826-9.261c.752-1.2,1.923-2.211,2.16-3.6.434-2.523-2.332-4.361-4.779-5.118-7.066-2.185-31.695-2.428-33.052,8.115C555.995,440.2,575.658,445.01,583.415,443.536Z" transform="translate(-359.835 -250.984)"/><ellipse class="l" cx="2.523" cy="7.157" rx="2.523" ry="7.157" transform="matrix(0.93, -0.367, 0.367, 0.93, 175.841, 209.595)"/><ellipse class="l" cx="7.157" cy="2.523" rx="7.157" ry="2.523" transform="matrix(0.367, -0.93, 0.93, 0.367, 253.287, 221.029)"/><path class="m" d="M645.706,526.976s32.891-9.236,57.3-46.276,25.674-37.141,25.674-37.141l13.046,5.153s-60.6,97.648-86.7,102.7S645.706,526.976,645.706,526.976Z" transform="translate(-400.974 -262.958)"/><path class="l" d="M812.83,428.272s5.047-5.471,1.686-10.094,22.308-10.094,19.36,0-6.733,15.141-6.733,15.141Z" transform="translate(-486.378 -247.37)"/><path class="m" d="M456.853,526.976s-32.891-9.236-57.3-46.276-25.674-37.141-25.674-37.141l-13.046,5.153s60.609,97.648,86.707,102.7S456.853,526.976,456.853,526.976Z" transform="translate(-262.5 -262.958)"/><path class="l" d="M368.284,428.272s-5.047-5.471-1.686-10.094-22.308-10.094-19.36,0,6.733,15.141,6.733,15.141Z" transform="translate(-255.651 -247.37)"/><g class="n" transform="translate(198.325 171.679)"><path class="g" d="M625.308,426.408c-.242,1.393-1.413,2.4-2.16,3.6a6.772,6.772,0,0,0,1.676,8.58,6.455,6.455,0,0,1,.429-5.622c.752-1.2,1.923-2.211,2.16-3.6.273-1.58-.712-2.892-2.084-3.836a3.03,3.03,0,0,1-.02.878Z" transform="translate(-590.318 -425.53)"/><path class="g" d="M601.3,443.608c-.161-.379-.313-.762-.444-1.146-.273-.8-.691-1.787-1.539-1.812a1.726,1.726,0,0,0-.742.192,6.056,6.056,0,0,0-3.533,5.93,5.315,5.315,0,0,0,2.256,3.71,4.736,4.736,0,0,1-.151-.762,6.056,6.056,0,0,1,3.533-5.93A1.952,1.952,0,0,1,601.3,443.608Z" transform="translate(-576.826 -433.019)"/><path class="g" d="M579.88,455.416c-6.137.257-16.039-2.084-20.92-7.066,3.644,7.752,18.7,11,25.235,9.751A5.087,5.087,0,0,1,579.88,455.416Z" transform="translate(-558.96 -436.833)"/><path class="g" d="M620.532,453.867a5.554,5.554,0,0,1-6.435,1.07,7.337,7.337,0,0,1-1.867-1.317,9,9,0,0,0,3.972,4.26c2.362,1.146,5.663.56,6.909-1.751A6,6,0,0,1,620.532,453.867Z" transform="translate(-585.345 -439.443)"/></g><path class="o" d="M748.239,453.3S687.631,550.948,661.508,556a30.457,30.457,0,0,1-4.578.56,26.773,26.773,0,0,0,6.263-.56c26.1-5.047,86.707-102.7,86.707-102.7l-1.353-.479A5.623,5.623,0,0,1,748.239,453.3Z" transform="translate(-409.16 -267.55)"/><path class="o" d="M362.52,453.3s60.609,97.648,86.732,102.7a30.455,30.455,0,0,0,4.578.56,26.772,26.772,0,0,1-6.263-.56c-26.1-5.047-86.707-102.7-86.707-102.7l1.353-.479A5.64,5.64,0,0,0,362.52,453.3Z" transform="translate(-262.515 -267.55)"/><path class="m" d="M395.346,506.88h0a40.406,40.406,0,0,1,40.406,40.406v16.837H354.94V547.286A40.406,40.406,0,0,1,395.346,506.88Z" transform="translate(-175.804 -251.785)"/><path class="o" d="M597.505,591.8h0a40.877,40.877,0,0,0-4.406.238c.51,0,.969-.031,1.459-.031h0a40.406,40.406,0,0,1,40.406,40.406v16.625h2.947V632.206A40.406,40.406,0,0,0,597.505,591.8Z" transform="translate(-377.544 -336.493)"/><path class="o" d="M560.516,591.8h0a40.874,40.874,0,0,1,4.406.238c-.51,0-.969-.031-1.459-.031h0a40.406,40.406,0,0,0-40.406,40.406v16.625H520.11V632.206A40.406,40.406,0,0,1,560.516,591.8Z" transform="translate(-341.392 -336.493)"/><rect class="l" width="23.569" height="28.409" rx="11.785" transform="translate(207.758 244.032)"/></svg>